<svg xmlns="http://www.w3.org/2000/svg" xmlns:xlink="http://www.w3.org/1999/xlink" width="500" zoomAndPan="magnify" viewBox="0 0 375 374.999991" height="500" preserveAspectRatio="xMidYMid meet" version="1.0"><defs><clipPath id="2ff535c3ef"><path d="M 62.695312 45.222656 L 269 45.222656 L 269 239.851562 L 62.695312 239.851562 Z M 62.695312 45.222656 " clip-rule="nonzero"/></clipPath><clipPath id="07a315ab66"><path d="M 62.699219 183.375 C 77.101562 146.476562 81.523438 136.648438 86.699219 127.726562 C 91.800781 119.023438 97.5 110.476562 103.875 102.976562 C 110.175781 95.625 117.074219 88.949219 124.648438 83.023438 C 132.375 76.949219 141.074219 71.925781 149.851562 67.050781 C 158.851562 62.023438 169.574219 56.625 177.898438 53.25 C 184.199219 50.625 190.574219 48.675781 195 47.476562 C 197.773438 46.648438 199.574219 46.199219 201.898438 45.976562 C 204.226562 45.75 206.625 45.824219 208.949219 46.125 C 211.273438 46.5 213.601562 47.101562 215.699219 48 C 217.875 48.898438 219.976562 50.101562 221.851562 51.449219 C 223.800781 52.875 225.523438 54.523438 227.023438 56.324219 C 228.523438 58.050781 229.875 60.074219 230.851562 62.175781 C 231.898438 64.273438 232.726562 66.601562 233.175781 68.851562 C 233.699219 71.175781 233.925781 73.574219 233.851562 75.898438 C 233.773438 78.226562 233.398438 80.625 232.800781 82.875 C 232.199219 85.125 231.226562 87.375 230.101562 89.398438 C 228.976562 91.425781 227.101562 93.824219 225.976562 95.101562 C 225.300781 95.773438 224.101562 96.148438 224.175781 96.601562 C 224.175781 96.976562 225.75 96.675781 226.199219 97.425781 C 227.773438 100.050781 222.226562 119.398438 224.101562 120.824219 C 224.851562 121.351562 225.824219 119.625 227.476562 119.550781 C 232.273438 119.476562 248.550781 122.476562 255.523438 128.175781 C 262.351562 133.875 269.101562 147.300781 268.875 153.601562 C 268.800781 157.5 263.398438 161.550781 263.398438 162.898438 C 263.324219 163.273438 263.625 163.273438 263.773438 163.648438 C 264.226562 165.148438 265.5 170.925781 265.425781 174.523438 C 265.425781 178.125 264.75 181.949219 263.550781 185.324219 C 262.351562 188.773438 260.550781 192.148438 258.300781 195 C 256.125 197.851562 253.273438 200.476562 250.273438 202.425781 C 247.273438 204.449219 242.773438 206.324219 240.300781 206.925781 C 238.875 207.300781 237.375 207 236.925781 207.300781 C 236.773438 207.375 236.851562 207.601562 236.699219 207.675781 C 236.175781 207.976562 234.226562 207.601562 233.023438 207.675781 C 231.75 207.75 230.324219 208.125 229.351562 208.050781 C 228.601562 207.976562 228.148438 207.675781 227.550781 207.601562 C 226.949219 207.523438 226.425781 207.75 225.675781 207.601562 C 224.699219 207.449219 223.425781 206.773438 222.226562 206.398438 C 221.023438 206.023438 219.601562 205.949219 218.625 205.574219 C 218.023438 205.273438 217.648438 204.898438 217.050781 204.601562 C 216.523438 204.375 215.851562 204.226562 215.324219 204 C 214.949219 203.773438 214.949219 203.324219 214.351562 203.25 C 212.101562 203.023438 202.949219 210.976562 195.601562 213 C 186.375 215.550781 171.675781 217.5 162.824219 214.949219 C 155.699219 212.925781 150.226562 202.351562 145.425781 202.800781 C 141.523438 203.175781 139.648438 209.101562 135.601562 212.851562 C 129.675781 218.25 121.648438 227.550781 112.875 231.601562 C 103.648438 235.949219 89.101562 242.25 81.074219 237.523438 C 70.425781 231.300781 62.699219 183.375 62.699219 183.375 " clip-rule="nonzero"/></clipPath><clipPath id="a88d32ad68"><path d="M 0.695312 0.601562 L 207 0.601562 L 207 194.851562 L 0.695312 194.851562 Z M 0.695312 0.601562 " clip-rule="nonzero"/></clipPath><clipPath id="0aba76cada"><path d="M 0.699219 138.375 C 15.101562 101.476562 19.523438 91.648438 24.699219 82.726562 C 29.800781 74.023438 35.5 65.476562 41.875 57.976562 C 48.175781 50.625 55.074219 43.949219 62.648438 38.023438 C 70.375 31.949219 79.074219 26.925781 87.851562 22.050781 C 96.851562 17.023438 107.574219 11.625 115.898438 8.25 C 122.199219 5.625 128.574219 3.675781 133 2.476562 C 135.773438 1.648438 137.574219 1.199219 139.898438 0.976562 C 142.226562 0.75 144.625 0.824219 146.949219 1.125 C 149.273438 1.5 151.601562 2.101562 153.699219 3 C 155.875 3.898438 157.976562 5.101562 159.851562 6.449219 C 161.800781 7.875 163.523438 9.523438 165.023438 11.324219 C 166.523438 13.050781 167.875 15.074219 168.851562 17.175781 C 169.898438 19.273438 170.726562 21.601562 171.175781 23.851562 C 171.699219 26.175781 171.925781 28.574219 171.851562 30.898438 C 171.773438 33.226562 171.398438 35.625 170.800781 37.875 C 170.199219 40.125 169.226562 42.375 168.101562 44.398438 C 166.976562 46.425781 165.101562 48.824219 163.976562 50.101562 C 163.300781 50.773438 162.101562 51.148438 162.175781 51.601562 C 162.175781 51.976562 163.75 51.675781 164.199219 52.425781 C 165.773438 55.050781 160.226562 74.398438 162.101562 75.824219 C 162.851562 76.351562 163.824219 74.625 165.476562 74.550781 C 170.273438 74.476562 186.550781 77.476562 193.523438 83.175781 C 200.351562 88.875 207.101562 102.300781 206.875 108.601562 C 206.800781 112.5 201.398438 116.550781 201.398438 117.898438 C 201.324219 118.273438 201.625 118.273438 201.773438 118.648438 C 202.226562 120.148438 203.5 125.925781 203.425781 129.523438 C 203.425781 133.125 202.75 136.949219 201.550781 140.324219 C 200.351562 143.773438 198.550781 147.148438 196.300781 150 C 194.125 152.851562 191.273438 155.476562 188.273438 157.425781 C 185.273438 159.449219 180.773438 161.324219 178.300781 161.925781 C 176.875 162.300781 175.375 162 174.925781 162.300781 C 174.773438 162.375 174.851562 162.601562 174.699219 162.675781 C 174.175781 162.976562 172.226562 162.601562 171.023438 162.675781 C 169.75 162.75 168.324219 163.125 167.351562 163.050781 C 166.601562 162.976562 166.148438 162.675781 165.550781 162.601562 C 164.949219 162.523438 164.425781 162.75 163.675781 162.601562 C 162.699219 162.449219 161.425781 161.773438 160.226562 161.398438 C 159.023438 161.023438 157.601562 160.949219 156.625 160.574219 C 156.023438 160.273438 155.648438 159.898438 155.050781 159.601562 C 154.523438 159.375 153.851562 159.226562 153.324219 159 C 152.949219 158.773438 152.949219 158.324219 152.351562 158.25 C 150.101562 158.023438 140.949219 165.976562 133.601562 168 C 124.375 170.550781 109.675781 172.5 100.824219 169.949219 C 93.699219 167.925781 88.226562 157.351562 83.425781 157.800781 C 79.523438 158.175781 77.648438 164.101562 73.601562 167.851562 C 67.675781 173.25 59.648438 182.550781 50.875 186.601562 C 41.648438 190.949219 27.101562 197.25 19.074219 192.523438 C 8.425781 186.300781 0.699219 138.375 0.699219 138.375 " clip-rule="nonzero"/></clipPath><clipPath id="2b08fcf8c2"><rect x="0" width="207" y="0" height="195"/></clipPath><clipPath id="d4f341df6a"><path d="M 180.121094 108.421875 L 298 108.421875 L 298 233.46875 L 180.121094 233.46875 Z M 180.121094 108.421875 " clip-rule="nonzero"/></clipPath><clipPath id="bf366f2117"><path d="M 223.875 112.574219 C 270.300781 142.5 271.800781 151.648438 276.824219 160.199219 C 282.375 169.574219 291.75 181.875 294.976562 189.074219 C 296.773438 193.050781 297.375 195.449219 297.75 198.75 C 298.125 202.050781 297.976562 205.574219 297.300781 208.800781 C 296.625 212.023438 295.351562 215.25 293.625 218.101562 C 291.976562 220.949219 289.648438 223.648438 287.175781 225.824219 C 284.699219 228 281.699219 229.800781 278.625 231.074219 C 275.550781 232.273438 272.101562 233.101562 268.800781 233.25 C 265.5 233.476562 262.050781 233.101562 258.824219 232.273438 C 255.675781 231.375 252.449219 229.949219 249.675781 228.074219 C 246.976562 226.273438 244.351562 223.875 242.398438 221.25 C 240.375 218.625 238.648438 215.550781 237.601562 212.398438 C 236.550781 209.324219 235.949219 205.800781 235.949219 202.5 C 235.875 199.199219 236.476562 195.75 237.449219 192.601562 C 238.5 189.449219 240.148438 186.375 242.101562 183.675781 C 244.125 181.050781 246.601562 178.648438 249.375 176.773438 C 252.074219 174.898438 255.226562 173.398438 258.449219 172.5 C 261.601562 171.601562 265.125 171.148438 268.425781 171.300781 C 271.726562 171.449219 275.175781 172.199219 278.25 173.398438 C 281.324219 174.601562 284.324219 176.398438 286.875 178.5 C 289.425781 180.675781 291.675781 183.300781 293.398438 186.148438 C 295.125 188.925781 296.476562 192.226562 297.226562 195.449219 C 297.898438 198.675781 298.125 202.199219 297.824219 205.425781 C 297.449219 208.726562 296.550781 212.175781 295.199219 215.175781 C 293.851562 218.175781 291.824219 221.101562 289.574219 223.5 C 287.324219 225.898438 284.550781 228.074219 281.625 229.648438 C 278.773438 231.226562 275.398438 232.351562 272.175781 232.875 C 268.875 233.476562 265.351562 233.476562 262.125 232.949219 C 258.824219 232.425781 255.523438 231.375 252.601562 229.800781 C 249.675781 228.300781 246.824219 226.199219 244.574219 223.800781 C 242.25 221.398438 239.625 215.324219 238.875 215.550781 C 238.5 215.625 238.949219 217.726562 238.5 217.800781 C 237.074219 218.101562 228.375 201 222.898438 192.898438 C 217.5 184.875 212.023438 175.425781 205.800781 169.425781 C 200.476562 164.398438 192.449219 161.476562 188.773438 158.101562 C 186.675781 156.148438 185.625 154.574219 184.425781 152.625 C 183.226562 150.675781 182.25 148.5 181.5 146.324219 C 180.824219 144.074219 180.375 141.75 180.226562 139.425781 C 180.074219 137.101562 180.226562 134.773438 180.601562 132.449219 C 180.976562 130.199219 181.726562 127.875 182.625 125.773438 C 183.523438 123.675781 184.800781 121.648438 186.148438 119.773438 C 187.574219 117.976562 189.300781 116.25 191.101562 114.824219 C 192.898438 113.398438 194.925781 112.125 197.023438 111.148438 C 199.125 110.175781 201.449219 109.5 203.699219 109.050781 C 205.949219 108.601562 208.351562 108.449219 210.675781 108.523438 C 212.925781 108.675781 215.324219 109.125 217.5 109.800781 C 219.75 110.476562 223.875 112.574219 223.875 112.574219 " clip-rule="nonzero"/></clipPath><clipPath id="bfbc720ed4"><path d="M 0.121094 0.421875 L 118 0.421875 L 118 125.46875 L 0.121094 125.46875 Z M 0.121094 0.421875 " clip-rule="nonzero"/></clipPath><clipPath id="572e09b46c"><path d="M 43.875 4.574219 C 90.300781 34.5 91.800781 43.648438 96.824219 52.199219 C 102.375 61.574219 111.75 73.875 114.976562 81.074219 C 116.773438 85.050781 117.375 87.449219 117.75 90.75 C 118.125 94.050781 117.976562 97.574219 117.300781 100.800781 C 116.625 104.023438 115.351562 107.25 113.625 110.101562 C 111.976562 112.949219 109.648438 115.648438 107.175781 117.824219 C 104.699219 120 101.699219 121.800781 98.625 123.074219 C 95.550781 124.273438 92.101562 125.101562 88.800781 125.25 C 85.5 125.476562 82.050781 125.101562 78.824219 124.273438 C 75.675781 123.375 72.449219 121.949219 69.675781 120.074219 C 66.976562 118.273438 64.351562 115.875 62.398438 113.25 C 60.375 110.625 58.648438 107.550781 57.601562 104.398438 C 56.550781 101.324219 55.949219 97.800781 55.949219 94.5 C 55.875 91.199219 56.476562 87.75 57.449219 84.601562 C 58.5 81.449219 60.148438 78.375 62.101562 75.675781 C 64.125 73.050781 66.601562 70.648438 69.375 68.773438 C 72.074219 66.898438 75.226562 65.398438 78.449219 64.5 C 81.601562 63.601562 85.125 63.148438 88.425781 63.300781 C 91.726562 63.449219 95.175781 64.199219 98.25 65.398438 C 101.324219 66.601562 104.324219 68.398438 106.875 70.5 C 109.425781 72.675781 111.675781 75.300781 113.398438 78.148438 C 115.125 80.925781 116.476562 84.226562 117.226562 87.449219 C 117.898438 90.675781 118.125 94.199219 117.824219 97.425781 C 117.449219 100.726562 116.550781 104.175781 115.199219 107.175781 C 113.851562 110.175781 111.824219 113.101562 109.574219 115.5 C 107.324219 117.898438 104.550781 120.074219 101.625 121.648438 C 98.773438 123.226562 95.398438 124.351562 92.175781 124.875 C 88.875 125.476562 85.351562 125.476562 82.125 124.949219 C 78.824219 124.425781 75.523438 123.375 72.601562 121.800781 C 69.675781 120.300781 66.824219 118.199219 64.574219 115.800781 C 62.25 113.398438 59.625 107.324219 58.875 107.550781 C 58.5 107.625 58.949219 109.726562 58.5 109.800781 C 57.074219 110.101562 48.375 93 42.898438 84.898438 C 37.5 76.875 32.023438 67.425781 25.800781 61.425781 C 20.476562 56.398438 12.449219 53.476562 8.773438 50.101562 C 6.675781 48.148438 5.625 46.574219 4.425781 44.625 C 3.226562 42.675781 2.25 40.5 1.5 38.324219 C 0.824219 36.074219 0.375 33.75 0.226562 31.425781 C 0.0742188 29.101562 0.226562 26.773438 0.601562 24.449219 C 0.976562 22.199219 1.726562 19.875 2.625 17.773438 C 3.523438 15.675781 4.800781 13.648438 6.148438 11.773438 C 7.574219 9.976562 9.300781 8.25 11.101562 6.824219 C 12.898438 5.398438 14.925781 4.125 17.023438 3.148438 C 19.125 2.175781 21.449219 1.5 23.699219 1.050781 C 25.949219 0.601562 28.351562 0.449219 30.675781 0.523438 C 32.925781 0.675781 35.324219 1.125 37.5 1.800781 C 39.75 2.476562 43.875 4.574219 43.875 4.574219 " clip-rule="nonzero"/></clipPath><clipPath id="5eb500ed13"><rect x="0" width="118" y="0" height="126"/></clipPath><clipPath id="ae47173e69"><path d="M 41 156.699219 L 309 156.699219 L 309 298.175781 L 41 298.175781 Z M 41 156.699219 " clip-rule="nonzero"/></clipPath><clipPath id="a798d81797"><path d="M 290.699219 193.726562 C 299.175781 201.824219 309 214.875 309 223.574219 C 309 232.199219 301.351562 241.648438 295.425781 249.226562 C 289.5 257.023438 281.25 263.851562 273.300781 269.699219 C 265.574219 275.324219 257.398438 279.976562 248.550781 283.800781 C 239.25 287.699219 228.75 290.175781 218.699219 292.425781 C 208.875 294.675781 198.898438 296.398438 189.074219 297.300781 C 179.324219 298.199219 169.726562 298.125 159.898438 297.976562 C 149.925781 297.824219 139.5 297.449219 129.601562 296.324219 C 119.925781 295.273438 110.625 293.851562 101.25 291.601562 C 91.648438 289.273438 81.300781 287.476562 72.601562 282.75 C 63.75 277.875 53.851562 271.125 48.601562 262.574219 C 43.273438 253.949219 42.074219 241.425781 41.398438 231 C 40.726562 221.101562 41.25 210.898438 43.949219 201.675781 C 46.648438 192.523438 53.550781 182.175781 57.449219 175.949219 C 59.925781 172.050781 61.574219 169.574219 64.125 166.949219 C 66.675781 164.398438 69.675781 162.148438 72.824219 160.5 C 75.976562 158.851562 79.574219 157.648438 83.101562 157.125 C 86.625 156.601562 90.449219 156.601562 93.976562 157.199219 C 97.425781 157.800781 101.023438 159.074219 104.175781 160.800781 C 107.324219 162.449219 110.324219 164.773438 112.726562 167.398438 C 115.199219 170.023438 117.300781 173.175781 118.726562 176.398438 C 120.226562 179.699219 121.199219 183.375 121.574219 186.898438 C 121.875 190.425781 121.648438 194.25 120.898438 197.699219 C 120.074219 201.148438 118.648438 204.675781 116.773438 207.75 C 114.898438 210.75 112.425781 213.675781 109.726562 215.925781 C 106.949219 218.175781 103.648438 220.125 100.351562 221.398438 C 97.050781 222.75 93.300781 223.5 89.773438 223.648438 C 86.175781 223.800781 82.425781 223.351562 78.976562 222.375 C 75.601562 221.398438 72.148438 219.824219 69.226562 217.800781 C 66.300781 215.773438 63.523438 213.074219 61.425781 210.226562 C 59.25 207.375 57.523438 204 56.398438 200.625 C 55.273438 197.25 54.75 193.5 54.75 189.898438 C 54.824219 186.375 55.425781 182.625 56.625 179.25 C 57.75 175.875 59.550781 172.574219 61.800781 169.726562 C 63.976562 166.875 66.75 164.324219 69.675781 162.375 C 72.675781 160.351562 76.125 158.773438 79.574219 157.875 C 83.023438 156.976562 86.773438 156.601562 90.375 156.824219 C 93.898438 157.050781 97.574219 157.875 100.875 159.226562 C 104.175781 160.574219 107.476562 162.601562 110.175781 164.925781 C 112.800781 167.25 115.273438 170.175781 117.074219 173.25 C 118.875 176.25 120.300781 179.851562 120.976562 183.300781 C 121.726562 186.824219 121.875 190.574219 121.5 194.175781 C 121.050781 197.699219 119.925781 200.476562 118.5 204.523438 C 116.398438 210.523438 106.949219 221.773438 109.5 226.5 C 112.351562 231.898438 129.75 231.375 139.875 232.726562 C 149.773438 234 159.523438 234.449219 169.574219 234.449219 C 179.851562 234.449219 190.648438 234.148438 200.851562 232.726562 C 210.976562 231.300781 221.476562 229.726562 230.550781 225.824219 C 239.398438 222.074219 250.050781 207.976562 254.851562 210.148438 C 259.949219 212.550781 261.523438 240.898438 259.050781 242.175781 C 257.476562 242.925781 252 236.175781 249.824219 233.398438 C 248.175781 231.300781 247.199219 229.5 246.300781 227.398438 C 245.398438 225.300781 244.726562 223.050781 244.351562 220.800781 C 243.976562 218.550781 243.898438 216.148438 244.050781 213.898438 C 244.199219 211.574219 244.726562 209.25 245.398438 207.074219 C 246.148438 204.898438 247.125 202.800781 248.324219 200.851562 C 249.601562 198.898438 251.023438 197.023438 252.675781 195.449219 C 254.324219 193.875 256.199219 192.449219 258.226562 191.25 C 260.175781 190.125 262.351562 189.148438 264.523438 188.550781 C 266.773438 187.875 269.101562 187.5 271.351562 187.425781 C 273.675781 187.273438 276 187.5 278.25 187.949219 C 280.5 188.398438 282.75 189.074219 284.851562 190.050781 C 286.949219 191.023438 290.699219 193.726562 290.699219 193.726562 " clip-rule="nonzero"/></clipPath><clipPath id="b26191a33a"><path d="M 0 0.699219 L 268 0.699219 L 268 142.175781 L 0 142.175781 Z M 0 0.699219 " clip-rule="nonzero"/></clipPath><clipPath id="585863b254"><path d="M 249.699219 37.726562 C 258.175781 45.824219 268 58.875 268 67.574219 C 268 76.199219 260.351562 85.648438 254.425781 93.226562 C 248.5 101.023438 240.25 107.851562 232.300781 113.699219 C 224.574219 119.324219 216.398438 123.976562 207.550781 127.800781 C 198.25 131.699219 187.75 134.175781 177.699219 136.425781 C 167.875 138.675781 157.898438 140.398438 148.074219 141.300781 C 138.324219 142.199219 128.726562 142.125 118.898438 141.976562 C 108.925781 141.824219 98.5 141.449219 88.601562 140.324219 C 78.925781 139.273438 69.625 137.851562 60.25 135.601562 C 50.648438 133.273438 40.300781 131.476562 31.601562 126.75 C 22.75 121.875 12.851562 115.125 7.601562 106.574219 C 2.273438 97.949219 1.074219 85.425781 0.398438 75 C -0.273438 65.101562 0.25 54.898438 2.949219 45.675781 C 5.648438 36.523438 12.550781 26.175781 16.449219 19.949219 C 18.925781 16.050781 20.574219 13.574219 23.125 10.949219 C 25.675781 8.398438 28.675781 6.148438 31.824219 4.5 C 34.976562 2.851562 38.574219 1.648438 42.101562 1.125 C 45.625 0.601562 49.449219 0.601562 52.976562 1.199219 C 56.425781 1.800781 60.023438 3.074219 63.175781 4.800781 C 66.324219 6.449219 69.324219 8.773438 71.726562 11.398438 C 74.199219 14.023438 76.300781 17.175781 77.726562 20.398438 C 79.226562 23.699219 80.199219 27.375 80.574219 30.898438 C 80.875 34.425781 80.648438 38.25 79.898438 41.699219 C 79.074219 45.148438 77.648438 48.675781 75.773438 51.75 C 73.898438 54.75 71.425781 57.675781 68.726562 59.925781 C 65.949219 62.175781 62.648438 64.125 59.351562 65.398438 C 56.050781 66.75 52.300781 67.5 48.773438 67.648438 C 45.175781 67.800781 41.425781 67.351562 37.976562 66.375 C 34.601562 65.398438 31.148438 63.824219 28.226562 61.800781 C 25.300781 59.773438 22.523438 57.074219 20.425781 54.226562 C 18.25 51.375 16.523438 48 15.398438 44.625 C 14.273438 41.25 13.75 37.5 13.75 33.898438 C 13.824219 30.375 14.425781 26.625 15.625 23.25 C 16.75 19.875 18.550781 16.574219 20.800781 13.726562 C 22.976562 10.875 25.75 8.324219 28.675781 6.375 C 31.675781 4.351562 35.125 2.773438 38.574219 1.875 C 42.023438 0.976562 45.773438 0.601562 49.375 0.824219 C 52.898438 1.050781 56.574219 1.875 59.875 3.226562 C 63.175781 4.574219 66.476562 6.601562 69.175781 8.925781 C 71.800781 11.25 74.273438 14.175781 76.074219 17.25 C 77.875 20.25 79.300781 23.851562 79.976562 27.300781 C 80.726562 30.824219 80.875 34.574219 80.5 38.175781 C 80.050781 41.699219 78.925781 44.476562 77.5 48.523438 C 75.398438 54.523438 65.949219 65.773438 68.5 70.5 C 71.351562 75.898438 88.75 75.375 98.875 76.726562 C 108.773438 78 118.523438 78.449219 128.574219 78.449219 C 138.851562 78.449219 149.648438 78.148438 159.851562 76.726562 C 169.976562 75.300781 180.476562 73.726562 189.550781 69.824219 C 198.398438 66.074219 209.050781 51.976562 213.851562 54.148438 C 218.949219 56.550781 220.523438 84.898438 218.050781 86.175781 C 216.476562 86.925781 211 80.175781 208.824219 77.398438 C 207.175781 75.300781 206.199219 73.5 205.300781 71.398438 C 204.398438 69.300781 203.726562 67.050781 203.351562 64.800781 C 202.976562 62.550781 202.898438 60.148438 203.050781 57.898438 C 203.199219 55.574219 203.726562 53.25 204.398438 51.074219 C 205.148438 48.898438 206.125 46.800781 207.324219 44.851562 C 208.601562 42.898438 210.023438 41.023438 211.675781 39.449219 C 213.324219 37.875 215.199219 36.449219 217.226562 35.25 C 219.175781 34.125 221.351562 33.148438 223.523438 32.550781 C 225.773438 31.875 228.101562 31.5 230.351562 31.425781 C 232.675781 31.273438 235 31.5 237.25 31.949219 C 239.5 32.398438 241.75 33.074219 243.851562 34.050781 C 245.949219 35.023438 249.699219 37.726562 249.699219 37.726562 " clip-rule="nonzero"/></clipPath><clipPath id="b8196ed844"><rect x="0" width="268" y="0" height="143"/></clipPath><clipPath id="08b92ab586"><path d="M 81.144531 176.496094 L 271.601562 176.496094 L 271.601562 254.707031 L 81.144531 254.707031 Z M 81.144531 176.496094 " clip-rule="nonzero"/></clipPath><clipPath id="5542ee0216"><path d="M 110.550781 194.925781 C 173.773438 193.273438 181.875 191.699219 191.550781 189.75 C 201.523438 187.875 213.898438 185.25 221.550781 182.625 C 226.5 180.898438 229.5 178.199219 233.398438 177.226562 C 236.851562 176.398438 240.300781 176.398438 243.601562 176.773438 C 246.898438 177.148438 250.351562 178.125 253.351562 179.550781 C 256.425781 180.976562 259.351562 183 261.75 185.324219 C 264.226562 187.648438 266.324219 190.5 267.898438 193.5 C 269.398438 196.5 270.523438 199.875 271.050781 203.175781 C 271.574219 206.476562 271.574219 210.074219 270.976562 213.375 C 270.449219 216.675781 269.25 220.050781 267.675781 222.976562 C 266.101562 225.976562 263.851562 228.75 261.449219 231.074219 C 258.976562 233.324219 256.050781 235.351562 252.976562 236.699219 C 249.898438 238.125 246.449219 239.023438 243.148438 239.324219 C 239.773438 239.699219 236.25 239.476562 232.949219 238.726562 C 229.726562 237.976562 226.351562 236.625 223.5 234.898438 C 220.648438 233.175781 217.949219 230.773438 215.773438 228.226562 C 213.675781 225.675781 211.875 222.601562 210.601562 219.449219 C 209.398438 216.375 208.648438 212.851562 208.5 209.476562 C 208.351562 206.175781 208.800781 202.574219 209.699219 199.425781 C 210.601562 196.199219 212.101562 192.898438 214.050781 190.199219 C 215.925781 187.425781 218.398438 184.875 221.101562 182.851562 C 223.800781 180.824219 226.949219 179.175781 230.101562 178.125 C 233.324219 177.074219 236.851562 176.550781 240.226562 176.550781 C 243.523438 176.550781 247.050781 177.226562 250.199219 178.273438 C 253.425781 179.398438 256.574219 181.050781 259.199219 183.148438 C 261.824219 185.175781 264.300781 187.800781 266.175781 190.574219 C 267.976562 193.351562 269.476562 196.574219 270.375 199.875 C 271.199219 203.101562 271.574219 206.625 271.351562 210 C 271.199219 213.300781 270.375 216.824219 269.101562 219.898438 C 267.824219 223.050781 265.949219 226.050781 263.773438 228.601562 C 261.601562 231.148438 259.800781 233.023438 255.976562 235.125 C 249 238.949219 233.925781 242.925781 222.976562 245.699219 C 212.398438 248.398438 201.675781 250.425781 191.398438 251.851562 C 181.648438 253.199219 173.699219 253.875 162.75 254.25 C 147.976562 254.773438 119.851562 254.101562 110.550781 253.5 C 107.175781 253.273438 105.824219 253.199219 103.574219 252.675781 C 101.324219 252.074219 99 251.25 96.976562 250.125 C 94.875 249.074219 92.925781 247.648438 91.125 246.148438 C 89.398438 244.574219 87.824219 242.773438 86.476562 240.824219 C 85.125 238.949219 84 236.773438 83.175781 234.601562 C 82.351562 232.425781 81.75 230.023438 81.523438 227.773438 C 81.226562 225.449219 81.226562 222.976562 81.523438 220.648438 C 81.75 218.324219 82.351562 216 83.175781 213.824219 C 84 211.648438 85.125 209.476562 86.476562 207.601562 C 87.824219 205.648438 89.398438 203.851562 91.125 202.273438 C 92.925781 200.773438 94.875 199.351562 96.976562 198.300781 C 99 197.175781 101.324219 196.351562 103.574219 195.75 C 105.824219 195.226562 110.550781 194.925781 110.550781 194.925781 " clip-rule="nonzero"/></clipPath><clipPath id="72675ccaa6"><path d="M 0.144531 0.496094 L 190.601562 0.496094 L 190.601562 78.707031 L 0.144531 78.707031 Z M 0.144531 0.496094 " clip-rule="nonzero"/></clipPath><clipPath id="6087a362fc"><path d="M 29.550781 18.925781 C 92.773438 17.273438 100.875 15.699219 110.550781 13.75 C 120.523438 11.875 132.898438 9.25 140.550781 6.625 C 145.5 4.898438 148.5 2.199219 152.398438 1.226562 C 155.851562 0.398438 159.300781 0.398438 162.601562 0.773438 C 165.898438 1.148438 169.351562 2.125 172.351562 3.550781 C 175.425781 4.976562 178.351562 7 180.75 9.324219 C 183.226562 11.648438 185.324219 14.5 186.898438 17.5 C 188.398438 20.5 189.523438 23.875 190.050781 27.175781 C 190.574219 30.476562 190.574219 34.074219 189.976562 37.375 C 189.449219 40.675781 188.25 44.050781 186.675781 46.976562 C 185.101562 49.976562 182.851562 52.75 180.449219 55.074219 C 177.976562 57.324219 175.050781 59.351562 171.976562 60.699219 C 168.898438 62.125 165.449219 63.023438 162.148438 63.324219 C 158.773438 63.699219 155.25 63.476562 151.949219 62.726562 C 148.726562 61.976562 145.351562 60.625 142.5 58.898438 C 139.648438 57.175781 136.949219 54.773438 134.773438 52.226562 C 132.675781 49.675781 130.875 46.601562 129.601562 43.449219 C 128.398438 40.375 127.648438 36.851562 127.5 33.476562 C 127.351562 30.175781 127.800781 26.574219 128.699219 23.425781 C 129.601562 20.199219 131.101562 16.898438 133.050781 14.199219 C 134.925781 11.425781 137.398438 8.875 140.101562 6.851562 C 142.800781 4.824219 145.949219 3.175781 149.101562 2.125 C 152.324219 1.074219 155.851562 0.550781 159.226562 0.550781 C 162.523438 0.550781 166.050781 1.226562 169.199219 2.273438 C 172.425781 3.398438 175.574219 5.050781 178.199219 7.148438 C 180.824219 9.175781 183.300781 11.800781 185.175781 14.574219 C 186.976562 17.351562 188.476562 20.574219 189.375 23.875 C 190.199219 27.101562 190.574219 30.625 190.351562 34 C 190.199219 37.300781 189.375 40.824219 188.101562 43.898438 C 186.824219 47.050781 184.949219 50.050781 182.773438 52.601562 C 180.601562 55.148438 178.800781 57.023438 174.976562 59.125 C 168 62.949219 152.925781 66.925781 141.976562 69.699219 C 131.398438 72.398438 120.675781 74.425781 110.398438 75.851562 C 100.648438 77.199219 92.699219 77.875 81.75 78.25 C 66.976562 78.773438 38.851562 78.101562 29.550781 77.5 C 26.175781 77.273438 24.824219 77.199219 22.574219 76.675781 C 20.324219 76.074219 18 75.25 15.976562 74.125 C 13.875 73.074219 11.925781 71.648438 10.125 70.148438 C 8.398438 68.574219 6.824219 66.773438 5.476562 64.824219 C 4.125 62.949219 3 60.773438 2.175781 58.601562 C 1.351562 56.425781 0.75 54.023438 0.523438 51.773438 C 0.226562 49.449219 0.226562 46.976562 0.523438 44.648438 C 0.75 42.324219 1.351562 40 2.175781 37.824219 C 3 35.648438 4.125 33.476562 5.476562 31.601562 C 6.824219 29.648438 8.398438 27.851562 10.125 26.273438 C 11.925781 24.773438 13.875 23.351562 15.976562 22.300781 C 18 21.175781 20.324219 20.351562 22.574219 19.75 C 24.824219 19.226562 29.550781 18.925781 29.550781 18.925781 " clip-rule="nonzero"/></clipPath><clipPath id="9198a71eed"><rect x="0" width="191" y="0" height="79"/></clipPath><clipPath id="e5056acfe7"><path d="M 57.648438 229.699219 L 269 229.699219 L 269 314.777344 L 57.648438 314.777344 Z M 57.648438 229.699219 " clip-rule="nonzero"/></clipPath><clipPath id="28fc4176af"><path d="M 252.601562 293.324219 C 207.375 311.773438 199.050781 311.023438 187.273438 311.773438 C 170.925781 312.898438 144.675781 315.074219 128.476562 314.25 C 117.148438 313.648438 108.523438 313.425781 99.523438 309.976562 C 90.375 306.523438 80.851562 299.398438 74.175781 293.25 C 68.550781 288.074219 63.824219 281.625 61.199219 276.523438 C 59.324219 273 58.574219 270 58.050781 266.550781 C 57.601562 263.175781 57.675781 259.5 58.273438 256.125 C 58.949219 252.75 60.148438 249.300781 61.875 246.300781 C 63.523438 243.300781 65.773438 240.449219 68.324219 238.125 C 70.875 235.875 73.949219 233.851562 77.101562 232.5 C 80.25 231.074219 83.851562 230.175781 87.226562 229.875 C 90.675781 229.648438 94.351562 229.875 97.648438 230.699219 C 101.023438 231.523438 104.398438 232.949219 107.25 234.824219 C 110.175781 236.625 112.949219 239.023438 115.125 241.726562 C 117.226562 244.425781 119.101562 247.574219 120.300781 250.800781 C 121.5 254.023438 122.175781 257.625 122.324219 261.074219 C 122.398438 264.449219 121.949219 268.125 120.898438 271.425781 C 119.925781 274.726562 118.351562 277.949219 116.324219 280.800781 C 114.375 283.574219 111.75 286.199219 108.976562 288.226562 C 106.199219 290.25 102.898438 291.824219 99.675781 292.875 C 96.375 293.925781 92.773438 294.449219 89.324219 294.375 C 85.875 294.300781 82.273438 293.625 79.050781 292.425781 C 75.824219 291.226562 72.601562 289.5 69.898438 287.324219 C 67.199219 285.148438 64.800781 282.449219 62.925781 279.601562 C 61.050781 276.675781 59.550781 273.300781 58.726562 270 C 57.898438 266.699219 57.601562 263.023438 57.824219 259.574219 C 58.125 256.199219 58.949219 252.601562 60.300781 249.449219 C 61.648438 246.300781 63.601562 243.226562 65.925781 240.601562 C 68.175781 238.050781 71.023438 235.726562 74.023438 234.074219 C 77.023438 232.351562 80.398438 231.074219 83.773438 230.398438 C 87.148438 229.726562 90.824219 229.648438 94.273438 230.101562 C 97.648438 230.550781 101.175781 231.601562 104.25 233.101562 C 107.324219 234.601562 110.324219 236.699219 112.726562 239.175781 C 115.199219 241.574219 115.949219 245.625 118.875 247.574219 C 122.324219 249.898438 126.449219 250.425781 132.75 251.25 C 145.425781 252.824219 174.976562 252.300781 191.101562 250.574219 C 202.726562 249.375 212.925781 246.898438 220.800781 244.574219 C 226.273438 242.925781 230.476562 240.074219 234.300781 239.25 C 236.925781 238.574219 238.949219 238.574219 241.199219 238.648438 C 243.523438 238.726562 245.851562 239.101562 248.101562 239.699219 C 250.273438 240.375 252.449219 241.273438 254.476562 242.398438 C 256.425781 243.523438 258.375 244.949219 260.023438 246.523438 C 261.675781 248.175781 263.175781 249.976562 264.449219 251.925781 C 265.648438 253.875 266.699219 255.976562 267.375 258.148438 C 268.125 260.324219 268.648438 262.648438 268.800781 264.976562 C 269.023438 267.226562 268.949219 269.625 268.574219 271.875 C 268.199219 274.125 267.523438 276.449219 266.699219 278.550781 C 265.800781 280.648438 264.601562 282.75 263.25 284.550781 C 261.824219 286.425781 260.175781 288.148438 258.449219 289.574219 C 256.648438 291 252.601562 293.324219 252.601562 293.324219 " clip-rule="nonzero"/></clipPath><clipPath id="7b33c8f1f9"><path d="M 0.648438 0.699219 L 212 0.699219 L 212 85.777344 L 0.648438 85.777344 Z M 0.648438 0.699219 " clip-rule="nonzero"/></clipPath><clipPath id="953b470f08"><path d="M 195.601562 64.324219 C 150.375 82.773438 142.050781 82.023438 130.273438 82.773438 C 113.925781 83.898438 87.675781 86.074219 71.476562 85.25 C 60.148438 84.648438 51.523438 84.425781 42.523438 80.976562 C 33.375 77.523438 23.851562 70.398438 17.175781 64.25 C 11.550781 59.074219 6.824219 52.625 4.199219 47.523438 C 2.324219 44 1.574219 41 1.050781 37.550781 C 0.601562 34.175781 0.675781 30.5 1.273438 27.125 C 1.949219 23.75 3.148438 20.300781 4.875 17.300781 C 6.523438 14.300781 8.773438 11.449219 11.324219 9.125 C 13.875 6.875 16.949219 4.851562 20.101562 3.5 C 23.25 2.074219 26.851562 1.175781 30.226562 0.875 C 33.675781 0.648438 37.351562 0.875 40.648438 1.699219 C 44.023438 2.523438 47.398438 3.949219 50.25 5.824219 C 53.175781 7.625 55.949219 10.023438 58.125 12.726562 C 60.226562 15.425781 62.101562 18.574219 63.300781 21.800781 C 64.5 25.023438 65.175781 28.625 65.324219 32.074219 C 65.398438 35.449219 64.949219 39.125 63.898438 42.425781 C 62.925781 45.726562 61.351562 48.949219 59.324219 51.800781 C 57.375 54.574219 54.75 57.199219 51.976562 59.226562 C 49.199219 61.25 45.898438 62.824219 42.675781 63.875 C 39.375 64.925781 35.773438 65.449219 32.324219 65.375 C 28.875 65.300781 25.273438 64.625 22.050781 63.425781 C 18.824219 62.226562 15.601562 60.5 12.898438 58.324219 C 10.199219 56.148438 7.800781 53.449219 5.925781 50.601562 C 4.050781 47.675781 2.550781 44.300781 1.726562 41 C 0.898438 37.699219 0.601562 34.023438 0.824219 30.574219 C 1.125 27.199219 1.949219 23.601562 3.300781 20.449219 C 4.648438 17.300781 6.601562 14.226562 8.925781 11.601562 C 11.175781 9.050781 14.023438 6.726562 17.023438 5.074219 C 20.023438 3.351562 23.398438 2.074219 26.773438 1.398438 C 30.148438 0.726562 33.824219 0.648438 37.273438 1.101562 C 40.648438 1.550781 44.175781 2.601562 47.25 4.101562 C 50.324219 5.601562 53.324219 7.699219 55.726562 10.175781 C 58.199219 12.574219 58.949219 16.625 61.875 18.574219 C 65.324219 20.898438 69.449219 21.425781 75.75 22.25 C 88.425781 23.824219 117.976562 23.300781 134.101562 21.574219 C 145.726562 20.375 155.925781 17.898438 163.800781 15.574219 C 169.273438 13.925781 173.476562 11.074219 177.300781 10.25 C 179.925781 9.574219 181.949219 9.574219 184.199219 9.648438 C 186.523438 9.726562 188.851562 10.101562 191.101562 10.699219 C 193.273438 11.375 195.449219 12.273438 197.476562 13.398438 C 199.425781 14.523438 201.375 15.949219 203.023438 17.523438 C 204.675781 19.175781 206.175781 20.976562 207.449219 22.925781 C 208.648438 24.875 209.699219 26.976562 210.375 29.148438 C 211.125 31.324219 211.648438 33.648438 211.800781 35.976562 C 212.023438 38.226562 211.949219 40.625 211.574219 42.875 C 211.199219 45.125 210.523438 47.449219 209.699219 49.550781 C 208.800781 51.648438 207.601562 53.75 206.25 55.550781 C 204.824219 57.425781 203.175781 59.148438 201.449219 60.574219 C 199.648438 62 195.601562 64.324219 195.601562 64.324219 " clip-rule="nonzero"/></clipPath><clipPath id="b394ab9743"><rect x="0" width="212" y="0" height="86"/></clipPath><clipPath id="dd7279ac7e"><path d="M 196.78125 28.105469 L 246.546875 28.105469 L 246.546875 72 L 196.78125 72 Z M 196.78125 28.105469 " clip-rule="nonzero"/></clipPath><clipPath id="8419eab83e"><path d="M 205.125 41.023438 C 223.800781 28.875 225.148438 28.5 226.949219 28.273438 C 228.75 28.050781 230.699219 28.050781 232.5 28.425781 C 234.226562 28.726562 236.101562 29.398438 237.675781 30.300781 C 239.25 31.199219 240.75 32.476562 241.949219 33.824219 C 243.226562 35.175781 244.273438 36.824219 244.949219 38.476562 C 245.699219 40.125 246.148438 42.074219 246.300781 43.875 C 246.449219 45.675781 246.300781 47.625 245.851562 49.351562 C 245.398438 51.148438 244.648438 52.949219 243.675781 54.449219 C 242.625 56.023438 241.351562 57.449219 239.925781 58.574219 C 238.5 59.699219 236.851562 60.675781 235.125 61.273438 C 233.398438 61.949219 231.523438 62.324219 229.648438 62.324219 C 227.851562 62.398438 225.898438 62.101562 224.175781 61.574219 C 222.449219 61.050781 220.726562 60.226562 219.226562 59.101562 C 217.726562 58.050781 216.375 56.699219 215.324219 55.199219 C 214.273438 53.699219 213.375 51.976562 212.851562 50.25 C 212.324219 48.523438 212.023438 46.574219 212.101562 44.773438 C 212.175781 42.898438 212.550781 41.023438 213.148438 39.300781 C 213.75 37.574219 214.726562 35.925781 215.925781 34.5 C 217.050781 33.074219 218.476562 31.800781 220.050781 30.824219 C 221.550781 29.773438 223.351562 29.023438 225.074219 28.574219 C 226.875 28.199219 228.824219 28.050781 230.625 28.199219 C 232.425781 28.351562 234.300781 28.800781 236.023438 29.476562 C 237.675781 30.226562 239.324219 31.273438 240.675781 32.476562 C 242.023438 33.75 243.226562 35.25 244.125 36.824219 C 245.023438 38.398438 245.699219 40.199219 246.074219 42 C 246.375 43.800781 246.449219 45.75 246.148438 47.550781 C 245.925781 49.351562 245.398438 51.226562 244.574219 52.875 C 243.75 54.449219 243 55.726562 241.351562 57.375 C 238.125 60.375 229.800781 65.324219 225.449219 67.800781 C 222.601562 69.449219 220.726562 70.726562 218.175781 71.398438 C 215.625 72 212.699219 72.226562 210.226562 71.699219 C 207.675781 71.175781 204.75 69.601562 202.949219 68.324219 C 201.75 67.425781 201 66.523438 200.175781 65.398438 C 199.425781 64.351562 198.675781 63.449219 198.148438 61.949219 C 197.476562 59.925781 196.648438 56.699219 196.875 54.074219 C 197.101562 51.523438 198 48.75 199.351562 46.5 C 200.773438 44.324219 205.125 41.023438 205.125 41.023438 " clip-rule="nonzero"/></clipPath><clipPath id="f0065047f8"><path d="M 0.78125 0.105469 L 50.480469 0.105469 L 50.480469 44 L 0.78125 44 Z M 0.78125 0.105469 " clip-rule="nonzero"/></clipPath><clipPath id="69265f930c"><path d="M 9.125 13.023438 C 27.800781 0.875 29.148438 0.5 30.949219 0.273438 C 32.75 0.0507812 34.699219 0.0507812 36.5 0.425781 C 38.226562 0.726562 40.101562 1.398438 41.675781 2.300781 C 43.25 3.199219 44.75 4.476562 45.949219 5.824219 C 47.226562 7.175781 48.273438 8.824219 48.949219 10.476562 C 49.699219 12.125 50.148438 14.074219 50.300781 15.875 C 50.449219 17.675781 50.300781 19.625 49.851562 21.351562 C 49.398438 23.148438 48.648438 24.949219 47.675781 26.449219 C 46.625 28.023438 45.351562 29.449219 43.925781 30.574219 C 42.5 31.699219 40.851562 32.675781 39.125 33.273438 C 37.398438 33.949219 35.523438 34.324219 33.648438 34.324219 C 31.851562 34.398438 29.898438 34.101562 28.175781 33.574219 C 26.449219 33.050781 24.726562 32.226562 23.226562 31.101562 C 21.726562 30.050781 20.375 28.699219 19.324219 27.199219 C 18.273438 25.699219 17.375 23.976562 16.851562 22.25 C 16.324219 20.523438 16.023438 18.574219 16.101562 16.773438 C 16.175781 14.898438 16.550781 13.023438 17.148438 11.300781 C 17.75 9.574219 18.726562 7.925781 19.925781 6.5 C 21.050781 5.074219 22.476562 3.800781 24.050781 2.824219 C 25.550781 1.773438 27.351562 1.023438 29.074219 0.574219 C 30.875 0.199219 32.824219 0.0507812 34.625 0.199219 C 36.425781 0.351562 38.300781 0.800781 40.023438 1.476562 C 41.675781 2.226562 43.324219 3.273438 44.675781 4.476562 C 46.023438 5.75 47.226562 7.25 48.125 8.824219 C 49.023438 10.398438 49.699219 12.199219 50.074219 14 C 50.375 15.800781 50.449219 17.75 50.148438 19.550781 C 49.925781 21.351562 49.398438 23.226562 48.574219 24.875 C 47.75 26.449219 47 27.726562 45.351562 29.375 C 42.125 32.375 33.800781 37.324219 29.449219 39.800781 C 26.601562 41.449219 24.726562 42.726562 22.175781 43.398438 C 19.625 44 16.699219 44.226562 14.226562 43.699219 C 11.675781 43.175781 8.75 41.601562 6.949219 40.324219 C 5.75 39.425781 5 38.523438 4.175781 37.398438 C 3.425781 36.351562 2.675781 35.449219 2.148438 33.949219 C 1.476562 31.925781 0.648438 28.699219 0.875 26.074219 C 1.101562 23.523438 2 20.75 3.351562 18.5 C 4.773438 16.324219 9.125 13.023438 9.125 13.023438 " clip-rule="nonzero"/></clipPath><clipPath id="e00ef4d72e"><rect x="0" width="51" y="0" height="44"/></clipPath><clipPath id="a7e518bee2"><path d="M 219.171875 23.722656 L 251.523438 23.722656 L 251.523438 56.828125 L 219.171875 56.828125 Z M 219.171875 23.722656 " clip-rule="nonzero"/></clipPath><clipPath id="d598282763"><path d="M 251.476562 35.324219 C 251.476562 45.675781 250.273438 48.375 248.699219 50.398438 C 247.125 52.425781 244.800781 54.226562 242.476562 55.273438 C 240.148438 56.324219 237.300781 56.851562 234.75 56.699219 C 232.199219 56.550781 229.351562 55.648438 227.175781 54.375 C 225 53.023438 222.898438 50.925781 221.625 48.75 C 220.273438 46.574219 219.449219 43.800781 219.300781 41.25 C 219.074219 38.625 219.675781 35.773438 220.726562 33.449219 C 221.773438 31.125 223.574219 28.800781 225.523438 27.226562 C 227.550781 25.648438 230.25 24.449219 232.800781 24 C 235.273438 23.550781 238.199219 23.699219 240.675781 24.449219 C 243.074219 25.199219 247.425781 28.574219 247.425781 28.574219 " clip-rule="nonzero"/></clipPath><clipPath id="d65e889991"><path d="M 0.171875 0.722656 L 32.519531 0.722656 L 32.519531 33.828125 L 0.171875 33.828125 Z M 0.171875 0.722656 " clip-rule="nonzero"/></clipPath><clipPath id="18478848b8"><path d="M 32.476562 12.324219 C 32.476562 22.675781 31.273438 25.375 29.699219 27.398438 C 28.125 29.425781 25.800781 31.226562 23.476562 32.273438 C 21.148438 33.324219 18.300781 33.851562 15.75 33.699219 C 13.199219 33.550781 10.351562 32.648438 8.175781 31.375 C 6 30.023438 3.898438 27.925781 2.625 25.75 C 1.273438 23.574219 0.449219 20.800781 0.300781 18.25 C 0.0742188 15.625 0.675781 12.773438 1.726562 10.449219 C 2.773438 8.125 4.574219 5.800781 6.523438 4.226562 C 8.550781 2.648438 11.25 1.449219 13.800781 1 C 16.273438 0.550781 19.199219 0.699219 21.675781 1.449219 C 24.074219 2.199219 28.425781 5.574219 28.425781 5.574219 " clip-rule="nonzero"/></clipPath><clipPath id="2af8f3f146"><rect x="0" width="33" y="0" height="34"/></clipPath><clipPath id="de708ad14c"><path d="M 243.421875 111.429688 L 297.945312 111.429688 L 297.945312 164.351562 L 243.421875 164.351562 Z M 243.421875 111.429688 " clip-rule="nonzero"/></clipPath><clipPath id="711bead186"><path d="M 250.050781 134.476562 C 274.5 112.199219 275.773438 112.050781 277.574219 111.675781 C 279.449219 111.375 281.398438 111.375 283.199219 111.675781 C 285.074219 111.976562 286.949219 112.574219 288.523438 113.398438 C 290.175781 114.300781 291.75 115.425781 293.023438 116.773438 C 294.300781 118.125 295.425781 119.773438 296.25 121.425781 C 297 123.074219 297.601562 124.949219 297.75 126.824219 C 297.976562 128.625 297.898438 130.648438 297.523438 132.449219 C 297.148438 134.25 296.398438 136.050781 295.5 137.625 C 294.523438 139.273438 293.25 140.773438 291.898438 141.976562 C 290.476562 143.175781 288.824219 144.226562 287.101562 144.898438 C 285.375 145.574219 283.425781 146.023438 281.625 146.175781 C 279.75 146.25 277.800781 146.101562 276 145.574219 C 274.199219 145.125 272.398438 144.300781 270.898438 143.25 C 269.324219 142.199219 267.898438 140.925781 266.773438 139.425781 C 265.648438 138 264.75 136.199219 264.148438 134.476562 C 263.550781 132.75 263.175781 130.800781 263.175781 128.925781 C 263.175781 127.125 263.476562 125.175781 264.074219 123.375 C 264.601562 121.648438 265.5 119.851562 266.625 118.425781 C 267.75 116.925781 269.175781 115.574219 270.675781 114.523438 C 272.175781 113.476562 273.976562 112.648438 275.773438 112.125 C 277.574219 111.601562 279.523438 111.375 281.324219 111.449219 C 283.199219 111.523438 285.148438 111.976562 286.875 112.648438 C 288.601562 113.324219 290.25 114.300781 291.675781 115.5 C 293.101562 116.699219 294.375 118.199219 295.351562 119.773438 C 296.324219 121.351562 297.074219 123.148438 297.449219 124.949219 C 297.898438 126.75 297.976562 128.699219 297.824219 130.574219 C 297.601562 132.375 297.074219 134.324219 296.324219 135.976562 C 295.574219 137.699219 294.523438 139.351562 293.25 140.699219 C 291.976562 142.050781 289.574219 142.949219 288.75 144.074219 C 288.226562 144.898438 288.675781 145.5 288 146.398438 C 286.273438 148.949219 278.550781 154.800781 274.648438 157.726562 C 271.875 159.824219 269.25 161.851562 267.074219 162.898438 C 265.648438 163.574219 264.75 163.875 263.25 164.023438 C 261.074219 164.324219 257.699219 164.324219 255.300781 163.5 C 252.824219 162.75 250.273438 161.25 248.476562 159.375 C 246.601562 157.574219 245.101562 155.023438 244.351562 152.550781 C 243.601562 150.074219 243.449219 147.148438 243.898438 144.601562 C 244.351562 142.050781 245.925781 139.125 247.199219 137.324219 C 248.101562 136.050781 250.050781 134.476562 250.050781 134.476562 " clip-rule="nonzero"/></clipPath><clipPath id="61da3dd581"><path d="M 0.421875 0.429688 L 54.945312 0.429688 L 54.945312 53.351562 L 0.421875 53.351562 Z M 0.421875 0.429688 " clip-rule="nonzero"/></clipPath><clipPath id="02e854e9aa"><path d="M 7.050781 23.476562 C 31.5 1.199219 32.773438 1.050781 34.574219 0.675781 C 36.449219 0.375 38.398438 0.375 40.199219 0.675781 C 42.074219 0.976562 43.949219 1.574219 45.523438 2.398438 C 47.175781 3.300781 48.75 4.425781 50.023438 5.773438 C 51.300781 7.125 52.425781 8.773438 53.25 10.425781 C 54 12.074219 54.601562 13.949219 54.75 15.824219 C 54.976562 17.625 54.898438 19.648438 54.523438 21.449219 C 54.148438 23.25 53.398438 25.050781 52.5 26.625 C 51.523438 28.273438 50.25 29.773438 48.898438 30.976562 C 47.476562 32.175781 45.824219 33.226562 44.101562 33.898438 C 42.375 34.574219 40.425781 35.023438 38.625 35.175781 C 36.75 35.25 34.800781 35.101562 33 34.574219 C 31.199219 34.125 29.398438 33.300781 27.898438 32.25 C 26.324219 31.199219 24.898438 29.925781 23.773438 28.425781 C 22.648438 27 21.75 25.199219 21.148438 23.476562 C 20.550781 21.75 20.175781 19.800781 20.175781 17.925781 C 20.175781 16.125 20.476562 14.175781 21.074219 12.375 C 21.601562 10.648438 22.5 8.851562 23.625 7.425781 C 24.75 5.925781 26.175781 4.574219 27.675781 3.523438 C 29.175781 2.476562 30.976562 1.648438 32.773438 1.125 C 34.574219 0.601562 36.523438 0.375 38.324219 0.449219 C 40.199219 0.523438 42.148438 0.976562 43.875 1.648438 C 45.601562 2.324219 47.25 3.300781 48.675781 4.5 C 50.101562 5.699219 51.375 7.199219 52.351562 8.773438 C 53.324219 10.351562 54.074219 12.148438 54.449219 13.949219 C 54.898438 15.75 54.976562 17.699219 54.824219 19.574219 C 54.601562 21.375 54.074219 23.324219 53.324219 24.976562 C 52.574219 26.699219 51.523438 28.351562 50.25 29.699219 C 48.976562 31.050781 46.574219 31.949219 45.75 33.074219 C 45.226562 33.898438 45.675781 34.5 45 35.398438 C 43.273438 37.949219 35.550781 43.800781 31.648438 46.726562 C 28.875 48.824219 26.25 50.851562 24.074219 51.898438 C 22.648438 52.574219 21.75 52.875 20.25 53.023438 C 18.074219 53.324219 14.699219 53.324219 12.300781 52.5 C 9.824219 51.75 7.273438 50.25 5.476562 48.375 C 3.601562 46.574219 2.101562 44.023438 1.351562 41.550781 C 0.601562 39.074219 0.449219 36.148438 0.898438 33.601562 C 1.351562 31.050781 2.925781 28.125 4.199219 26.324219 C 5.101562 25.050781 7.050781 23.476562 7.050781 23.476562 " clip-rule="nonzero"/></clipPath><clipPath id="36ce1ddeca"><rect x="0" width="55" y="0" height="54"/></clipPath><clipPath id="1b87ff0fe2"><path d="M 253.019531 147.496094 L 286.078125 147.496094 L 286.078125 180.707031 L 253.019531 180.707031 Z M 253.019531 147.496094 " clip-rule="nonzero"/></clipPath><clipPath id="fba169eed6"><path d="M 269.550781 147.601562 C 276.523438 149.023438 278.175781 149.925781 279.601562 150.976562 C 280.949219 152.023438 282.226562 153.375 283.273438 154.800781 C 284.25 156.300781 285 158.023438 285.449219 159.675781 C 285.976562 161.398438 286.125 163.273438 286.050781 165 C 285.976562 166.726562 285.601562 168.601562 284.925781 170.175781 C 284.25 171.824219 283.273438 173.476562 282.148438 174.75 C 281.023438 176.101562 279.601562 177.300781 278.101562 178.273438 C 276.601562 179.175781 274.875 179.851562 273.148438 180.226562 C 271.425781 180.601562 269.550781 180.675781 267.824219 180.523438 C 266.023438 180.300781 264.226562 179.851562 262.648438 179.101562 C 261.074219 178.351562 259.5 177.300781 258.226562 176.101562 C 256.949219 174.898438 255.824219 173.398438 255 171.824219 C 254.175781 170.25 253.574219 168.523438 253.273438 166.800781 C 253.050781 165 253.050781 163.125 253.273438 161.398438 C 253.574219 159.675781 254.175781 157.949219 255 156.375 C 255.824219 154.800781 256.949219 153.300781 258.226562 152.101562 C 259.5 150.898438 261.074219 149.851562 262.648438 149.101562 C 264.226562 148.351562 266.023438 147.898438 267.824219 147.675781 C 269.550781 147.523438 271.425781 147.601562 273.148438 147.976562 C 274.875 148.351562 276.601562 149.023438 278.101562 149.925781 C 279.601562 150.898438 281.023438 152.101562 282.148438 153.449219 C 283.273438 154.726562 284.25 156.375 284.925781 158.023438 C 285.601562 159.601562 285.976562 161.476562 286.050781 163.199219 C 286.125 165 285.976562 166.800781 285.449219 168.523438 C 285 170.175781 284.25 171.898438 283.273438 173.398438 C 282.226562 174.824219 280.949219 176.175781 279.601562 177.226562 C 278.175781 178.273438 276.523438 179.175781 274.875 179.773438 C 273.148438 180.300781 271.5 180.675781 269.550781 180.601562 C 267.226562 180.523438 263.851562 179.625 261.898438 178.726562 C 260.550781 178.125 259.726562 177.601562 258.601562 176.476562 C 257.101562 174.976562 255 172.425781 254.101562 170.023438 C 253.199219 167.625 252.824219 164.699219 253.125 162.148438 C 253.425781 159.675781 254.773438 156.601562 255.898438 154.800781 C 256.648438 153.449219 257.550781 152.699219 258.523438 151.800781 C 259.5 150.898438 260.398438 150.148438 261.75 149.550781 C 263.773438 148.648438 269.476562 147.601562 269.476562 147.601562 " clip-rule="nonzero"/></clipPath><clipPath id="b594596c81"><path d="M 0.0195312 0.496094 L 33.078125 0.496094 L 33.078125 33.707031 L 0.0195312 33.707031 Z M 0.0195312 0.496094 " clip-rule="nonzero"/></clipPath><clipPath id="d1c5b5f17f"><path d="M 16.550781 0.601562 C 23.523438 2.023438 25.175781 2.925781 26.601562 3.976562 C 27.949219 5.023438 29.226562 6.375 30.273438 7.800781 C 31.25 9.300781 32 11.023438 32.449219 12.675781 C 32.976562 14.398438 33.125 16.273438 33.050781 18 C 32.976562 19.726562 32.601562 21.601562 31.925781 23.175781 C 31.25 24.824219 30.273438 26.476562 29.148438 27.75 C 28.023438 29.101562 26.601562 30.300781 25.101562 31.273438 C 23.601562 32.175781 21.875 32.851562 20.148438 33.226562 C 18.425781 33.601562 16.550781 33.675781 14.824219 33.523438 C 13.023438 33.300781 11.226562 32.851562 9.648438 32.101562 C 8.074219 31.351562 6.5 30.300781 5.226562 29.101562 C 3.949219 27.898438 2.824219 26.398438 2 24.824219 C 1.175781 23.25 0.574219 21.523438 0.273438 19.800781 C 0.0507812 18 0.0507812 16.125 0.273438 14.398438 C 0.574219 12.675781 1.175781 10.949219 2 9.375 C 2.824219 7.800781 3.949219 6.300781 5.226562 5.101562 C 6.5 3.898438 8.074219 2.851562 9.648438 2.101562 C 11.226562 1.351562 13.023438 0.898438 14.824219 0.675781 C 16.550781 0.523438 18.425781 0.601562 20.148438 0.976562 C 21.875 1.351562 23.601562 2.023438 25.101562 2.925781 C 26.601562 3.898438 28.023438 5.101562 29.148438 6.449219 C 30.273438 7.726562 31.25 9.375 31.925781 11.023438 C 32.601562 12.601562 32.976562 14.476562 33.050781 16.199219 C 33.125 18 32.976562 19.800781 32.449219 21.523438 C 32 23.175781 31.25 24.898438 30.273438 26.398438 C 29.226562 27.824219 27.949219 29.175781 26.601562 30.226562 C 25.175781 31.273438 23.523438 32.175781 21.875 32.773438 C 20.148438 33.300781 18.5 33.675781 16.550781 33.601562 C 14.226562 33.523438 10.851562 32.625 8.898438 31.726562 C 7.550781 31.125 6.726562 30.601562 5.601562 29.476562 C 4.101562 27.976562 2 25.425781 1.101562 23.023438 C 0.199219 20.625 -0.175781 17.699219 0.125 15.148438 C 0.425781 12.675781 1.773438 9.601562 2.898438 7.800781 C 3.648438 6.449219 4.550781 5.699219 5.523438 4.800781 C 6.5 3.898438 7.398438 3.148438 8.75 2.550781 C 10.773438 1.648438 16.476562 0.601562 16.476562 0.601562 " clip-rule="nonzero"/></clipPath><clipPath id="3d07b55809"><rect x="0" width="34" y="0" height="34"/></clipPath><clipPath id="f8e224c409"><path d="M 275.605469 190.03125 L 321 190.03125 L 321 231.082031 L 275.605469 231.082031 Z M 275.605469 190.03125 " clip-rule="nonzero"/></clipPath><clipPath id="718dce4c21"><path d="M 284.550781 199.648438 C 299.925781 190.425781 301.351562 190.273438 303.148438 190.125 C 304.949219 190.050781 306.898438 190.273438 308.625 190.800781 C 310.351562 191.324219 312.074219 192.148438 313.574219 193.125 C 315.074219 194.175781 316.425781 195.523438 317.550781 196.949219 C 318.601562 198.375 319.5 200.101562 320.101562 201.824219 C 320.625 203.550781 320.925781 205.425781 320.925781 207.300781 C 320.851562 209.101562 320.550781 210.976562 319.949219 212.699219 C 319.351562 214.351562 318.449219 216.074219 317.324219 217.5 C 316.273438 218.925781 314.851562 220.273438 313.351562 221.25 C 311.851562 222.226562 310.050781 223.050781 308.324219 223.5 C 306.601562 223.949219 304.648438 224.175781 302.851562 224.023438 C 301.050781 223.949219 299.175781 223.5 297.523438 222.824219 C 295.875 222.148438 294.226562 221.101562 292.800781 219.976562 C 291.449219 218.773438 290.25 217.273438 289.351562 215.699219 C 288.375 214.199219 287.699219 212.398438 287.324219 210.601562 C 286.949219 208.800781 286.875 206.925781 287.101562 205.125 C 287.324219 203.324219 287.851562 201.449219 288.601562 199.875 C 289.351562 198.226562 290.476562 196.648438 291.75 195.300781 C 292.949219 194.023438 294.523438 192.898438 296.101562 192.074219 C 297.75 191.175781 299.550781 190.648438 301.351562 190.351562 C 303.148438 190.050781 305.023438 190.050781 306.824219 190.425781 C 308.625 190.726562 310.425781 191.324219 312 192.226562 C 313.574219 193.050781 315.148438 194.25 316.351562 195.523438 C 317.625 196.875 318.675781 198.449219 319.425781 200.101562 C 320.175781 201.75 320.625 203.625 320.851562 205.425781 C 321 207.226562 320.851562 209.175781 320.476562 210.898438 C 320.101562 212.699219 319.351562 214.425781 318.375 216 C 317.476562 217.5 316.425781 218.699219 314.773438 220.125 C 312.300781 222.300781 307.648438 225.226562 304.273438 227.023438 C 301.5 228.601562 299.023438 230.023438 296.25 230.625 C 293.625 231.148438 290.773438 231.226562 288.300781 230.625 C 285.75 229.949219 282.898438 228.226562 281.25 226.875 C 279.976562 225.898438 279.300781 225 278.550781 223.875 C 277.800781 222.75 277.125 221.773438 276.675781 220.273438 C 276.074219 218.25 275.398438 214.949219 275.699219 212.398438 C 276.074219 209.851562 277.125 207.074219 278.550781 204.898438 C 280.050781 202.800781 284.550781 199.648438 284.550781 199.648438 " clip-rule="nonzero"/></clipPath><clipPath id="664d5cf207"><path d="M 0.605469 0.03125 L 46 0.03125 L 46 41.082031 L 0.605469 41.082031 Z M 0.605469 0.03125 " clip-rule="nonzero"/></clipPath><clipPath id="336cd30634"><path d="M 9.550781 9.648438 C 24.925781 0.425781 26.351562 0.273438 28.148438 0.125 C 29.949219 0.0507812 31.898438 0.273438 33.625 0.800781 C 35.351562 1.324219 37.074219 2.148438 38.574219 3.125 C 40.074219 4.175781 41.425781 5.523438 42.550781 6.949219 C 43.601562 8.375 44.5 10.101562 45.101562 11.824219 C 45.625 13.550781 45.925781 15.425781 45.925781 17.300781 C 45.851562 19.101562 45.550781 20.976562 44.949219 22.699219 C 44.351562 24.351562 43.449219 26.074219 42.324219 27.5 C 41.273438 28.925781 39.851562 30.273438 38.351562 31.25 C 36.851562 32.226562 35.050781 33.050781 33.324219 33.5 C 31.601562 33.949219 29.648438 34.175781 27.851562 34.023438 C 26.050781 33.949219 24.175781 33.5 22.523438 32.824219 C 20.875 32.148438 19.226562 31.101562 17.800781 29.976562 C 16.449219 28.773438 15.25 27.273438 14.351562 25.699219 C 13.375 24.199219 12.699219 22.398438 12.324219 20.601562 C 11.949219 18.800781 11.875 16.925781 12.101562 15.125 C 12.324219 13.324219 12.851562 11.449219 13.601562 9.875 C 14.351562 8.226562 15.476562 6.648438 16.75 5.300781 C 17.949219 4.023438 19.523438 2.898438 21.101562 2.074219 C 22.75 1.175781 24.550781 0.648438 26.351562 0.351562 C 28.148438 0.0507812 30.023438 0.0507812 31.824219 0.425781 C 33.625 0.726562 35.425781 1.324219 37 2.226562 C 38.574219 3.050781 40.148438 4.25 41.351562 5.523438 C 42.625 6.875 43.675781 8.449219 44.425781 10.101562 C 45.175781 11.75 45.625 13.625 45.851562 15.425781 C 46 17.226562 45.851562 19.175781 45.476562 20.898438 C 45.101562 22.699219 44.351562 24.425781 43.375 26 C 42.476562 27.5 41.425781 28.699219 39.773438 30.125 C 37.300781 32.300781 32.648438 35.226562 29.273438 37.023438 C 26.5 38.601562 24.023438 40.023438 21.25 40.625 C 18.625 41.148438 15.773438 41.226562 13.300781 40.625 C 10.75 39.949219 7.898438 38.226562 6.25 36.875 C 4.976562 35.898438 4.300781 35 3.550781 33.875 C 2.800781 32.75 2.125 31.773438 1.675781 30.273438 C 1.074219 28.25 0.398438 24.949219 0.699219 22.398438 C 1.074219 19.851562 2.125 17.074219 3.550781 14.898438 C 5.050781 12.800781 9.550781 9.648438 9.550781 9.648438 " clip-rule="nonzero"/></clipPath><clipPath id="7f4cfd1bb9"><rect x="0" width="46" y="0" height="42"/></clipPath><clipPath id="ce47bc6d64"><path d="M 295.671875 188.871094 L 328 188.871094 L 328 221.976562 L 295.671875 221.976562 Z M 295.671875 188.871094 " clip-rule="nonzero"/></clipPath><clipPath id="19bd984ef0"><path d="M 327.976562 200.476562 C 327.976562 210.898438 326.773438 213.523438 325.199219 215.550781 C 323.625 217.574219 321.375 219.375 318.976562 220.425781 C 316.648438 221.476562 313.800781 222 311.25 221.851562 C 308.699219 221.699219 305.925781 220.800781 303.675781 219.523438 C 301.5 218.175781 299.476562 216.148438 298.125 213.898438 C 296.773438 211.726562 295.949219 208.949219 295.800781 206.398438 C 295.648438 203.851562 296.175781 200.925781 297.226562 198.601562 C 298.273438 196.273438 300.074219 193.949219 302.101562 192.375 C 304.050781 190.800781 306.75 189.601562 309.300781 189.148438 C 311.773438 188.699219 314.699219 188.851562 317.175781 189.675781 C 319.574219 190.425781 323.925781 193.726562 323.925781 193.726562 " clip-rule="nonzero"/></clipPath><clipPath id="4075115fab"><path d="M 0.671875 0.871094 L 33 0.871094 L 33 33.976562 L 0.671875 33.976562 Z M 0.671875 0.871094 " clip-rule="nonzero"/></clipPath><clipPath id="0f5d77d344"><path d="M 32.976562 12.476562 C 32.976562 22.898438 31.773438 25.523438 30.199219 27.550781 C 28.625 29.574219 26.375 31.375 23.976562 32.425781 C 21.648438 33.476562 18.800781 34 16.25 33.851562 C 13.699219 33.699219 10.925781 32.800781 8.675781 31.523438 C 6.5 30.175781 4.476562 28.148438 3.125 25.898438 C 1.773438 23.726562 0.949219 20.949219 0.800781 18.398438 C 0.648438 15.851562 1.175781 12.925781 2.226562 10.601562 C 3.273438 8.273438 5.074219 5.949219 7.101562 4.375 C 9.050781 2.800781 11.75 1.601562 14.300781 1.148438 C 16.773438 0.699219 19.699219 0.851562 22.175781 1.675781 C 24.574219 2.425781 28.925781 5.726562 28.925781 5.726562 " clip-rule="nonzero"/></clipPath><clipPath id="e39949eaf5"><rect x="0" width="33" y="0" height="34"/></clipPath><clipPath id="d16f3b7dc6"><path d="M 214.839844 275.066406 L 281.953125 275.066406 L 281.953125 331.515625 L 214.839844 331.515625 Z M 214.839844 275.066406 " clip-rule="nonzero"/></clipPath><clipPath id="374eaa7733"><path d="M 235.875 275.476562 C 247.648438 278.550781 255.300781 280.050781 259.648438 283.425781 C 264 286.800781 266.398438 294.523438 269.625 297.300781 C 271.648438 299.023438 273.976562 298.949219 275.699219 300.300781 C 277.199219 301.5 278.398438 303 279.375 304.648438 C 280.351562 306.226562 281.101562 308.101562 281.476562 309.976562 C 281.851562 311.773438 282 313.800781 281.773438 315.675781 C 281.550781 317.550781 281.023438 319.5 280.273438 321.148438 C 279.449219 322.875 278.324219 324.523438 277.050781 325.875 C 275.773438 327.300781 274.125 328.5 272.476562 329.324219 C 270.824219 330.226562 268.949219 330.898438 267.074219 331.199219 C 265.199219 331.5 263.175781 331.5 261.375 331.199219 C 259.5 330.898438 257.625 330.226562 255.898438 329.324219 C 254.25 328.5 252.675781 327.226562 251.398438 325.875 C 250.050781 324.523438 248.925781 322.875 248.175781 321.148438 C 247.351562 319.425781 246.824219 317.476562 246.675781 315.675781 C 246.449219 313.800781 246.523438 311.773438 246.976562 309.898438 C 247.351562 308.101562 248.101562 306.226562 249.074219 304.648438 C 250.050781 303 251.324219 301.5 252.75 300.226562 C 254.25 299.023438 255.976562 297.976562 257.699219 297.300781 C 259.425781 296.625 261.375 296.175781 263.25 296.101562 C 265.125 296.023438 267.148438 296.175781 268.949219 296.699219 C 270.75 297.226562 272.625 298.050781 274.125 299.101562 C 275.699219 300.148438 277.125 301.574219 278.324219 303.074219 C 279.449219 304.574219 280.351562 306.300781 280.949219 308.101562 C 281.550781 309.898438 281.925781 311.851562 281.925781 313.726562 C 281.925781 315.601562 281.550781 317.625 280.949219 319.425781 C 280.351562 321.148438 279.449219 322.949219 278.25 324.449219 C 277.125 325.949219 275.699219 327.300781 274.125 328.351562 C 272.550781 329.398438 270.75 330.300781 268.949219 330.75 C 267.148438 331.273438 265.125 331.5 263.25 331.425781 C 261.375 331.273438 259.425781 330.824219 257.699219 330.148438 C 255.898438 329.476562 254.773438 328.800781 252.75 327.226562 C 248.550781 323.925781 240.601562 313.273438 234.976562 309.898438 C 231.148438 307.648438 226.5 307.726562 223.949219 306.449219 C 222.449219 305.773438 221.625 305.023438 220.648438 304.199219 C 219.601562 303.300781 218.773438 302.476562 217.949219 301.125 C 216.824219 299.25 215.550781 295.800781 215.175781 293.625 C 214.875 292.125 214.875 291.074219 215.175781 289.574219 C 215.625 287.398438 216.601562 284.25 218.101562 282.074219 C 219.601562 279.976562 222.226562 277.949219 224.101562 276.824219 C 225.449219 276 226.351562 275.699219 227.925781 275.398438 C 230.023438 275.023438 235.875 275.476562 235.875 275.476562 " clip-rule="nonzero"/></clipPath><clipPath id="a72c49110e"><path d="M 0.839844 0.0664062 L 67.953125 0.0664062 L 67.953125 56.515625 L 0.839844 56.515625 Z M 0.839844 0.0664062 " clip-rule="nonzero"/></clipPath><clipPath id="8cac9a0851"><path d="M 21.875 0.476562 C 33.648438 3.550781 41.300781 5.050781 45.648438 8.425781 C 50 11.800781 52.398438 19.523438 55.625 22.300781 C 57.648438 24.023438 59.976562 23.949219 61.699219 25.300781 C 63.199219 26.5 64.398438 28 65.375 29.648438 C 66.351562 31.226562 67.101562 33.101562 67.476562 34.976562 C 67.851562 36.773438 68 38.800781 67.773438 40.675781 C 67.550781 42.550781 67.023438 44.5 66.273438 46.148438 C 65.449219 47.875 64.324219 49.523438 63.050781 50.875 C 61.773438 52.300781 60.125 53.5 58.476562 54.324219 C 56.824219 55.226562 54.949219 55.898438 53.074219 56.199219 C 51.199219 56.5 49.175781 56.5 47.375 56.199219 C 45.5 55.898438 43.625 55.226562 41.898438 54.324219 C 40.25 53.5 38.675781 52.226562 37.398438 50.875 C 36.050781 49.523438 34.925781 47.875 34.175781 46.148438 C 33.351562 44.425781 32.824219 42.476562 32.675781 40.675781 C 32.449219 38.800781 32.523438 36.773438 32.976562 34.898438 C 33.351562 33.101562 34.101562 31.226562 35.074219 29.648438 C 36.050781 28 37.324219 26.5 38.75 25.226562 C 40.25 24.023438 41.976562 22.976562 43.699219 22.300781 C 45.425781 21.625 47.375 21.175781 49.25 21.101562 C 51.125 21.023438 53.148438 21.175781 54.949219 21.699219 C 56.75 22.226562 58.625 23.050781 60.125 24.101562 C 61.699219 25.148438 63.125 26.574219 64.324219 28.074219 C 65.449219 29.574219 66.351562 31.300781 66.949219 33.101562 C 67.550781 34.898438 67.925781 36.851562 67.925781 38.726562 C 67.925781 40.601562 67.550781 42.625 66.949219 44.425781 C 66.351562 46.148438 65.449219 47.949219 64.25 49.449219 C 63.125 50.949219 61.699219 52.300781 60.125 53.351562 C 58.550781 54.398438 56.75 55.300781 54.949219 55.75 C 53.148438 56.273438 51.125 56.5 49.25 56.425781 C 47.375 56.273438 45.425781 55.824219 43.699219 55.148438 C 41.898438 54.476562 40.773438 53.800781 38.75 52.226562 C 34.550781 48.925781 26.601562 38.273438 20.976562 34.898438 C 17.148438 32.648438 12.5 32.726562 9.949219 31.449219 C 8.449219 30.773438 7.625 30.023438 6.648438 29.199219 C 5.601562 28.300781 4.773438 27.476562 3.949219 26.125 C 2.824219 24.25 1.550781 20.800781 1.175781 18.625 C 0.875 17.125 0.875 16.074219 1.175781 14.574219 C 1.625 12.398438 2.601562 9.25 4.101562 7.074219 C 5.601562 4.976562 8.226562 2.949219 10.101562 1.824219 C 11.449219 1 12.351562 0.699219 13.925781 0.398438 C 16.023438 0.0234375 21.875 0.476562 21.875 0.476562 " clip-rule="nonzero"/></clipPath><clipPath id="f9b79c60a3"><rect x="0" width="68" y="0" height="57"/></clipPath><clipPath id="667459db80"><path d="M 226 281.792969 L 258.5 281.792969 L 258.5 315 L 226 315 Z M 226 281.792969 " clip-rule="nonzero"/></clipPath><clipPath id="2115dbb3bb"><path d="M 258.375 293.550781 C 258.375 303.898438 257.175781 306.601562 255.601562 308.625 C 254.023438 310.648438 251.699219 312.449219 249.375 313.5 C 247.050781 314.550781 244.125 315.074219 241.574219 314.925781 C 239.023438 314.773438 236.25 313.875 234.074219 312.523438 C 231.898438 311.25 229.800781 309.148438 228.449219 306.976562 C 227.175781 304.800781 226.273438 301.949219 226.125 299.398438 C 225.976562 296.851562 226.5 294 227.550781 291.675781 C 228.601562 289.351562 230.398438 287.023438 232.425781 285.449219 C 234.449219 283.875 237.148438 282.675781 239.625 282.226562 C 242.175781 281.699219 245.101562 281.925781 247.5 282.675781 C 249.976562 283.425781 254.25 286.726562 254.25 286.726562 " clip-rule="nonzero"/></clipPath><clipPath id="fa8304779a"><path d="M 0 0.792969 L 32.480469 0.792969 L 32.480469 34 L 0 34 Z M 0 0.792969 " clip-rule="nonzero"/></clipPath><clipPath id="cea8b20333"><path d="M 32.375 12.550781 C 32.375 22.898438 31.175781 25.601562 29.601562 27.625 C 28.023438 29.648438 25.699219 31.449219 23.375 32.5 C 21.050781 33.550781 18.125 34.074219 15.574219 33.925781 C 13.023438 33.773438 10.25 32.875 8.074219 31.523438 C 5.898438 30.25 3.800781 28.148438 2.449219 25.976562 C 1.175781 23.800781 0.273438 20.949219 0.125 18.398438 C -0.0234375 15.851562 0.5 13 1.550781 10.675781 C 2.601562 8.351562 4.398438 6.023438 6.425781 4.449219 C 8.449219 2.875 11.148438 1.675781 13.625 1.226562 C 16.175781 0.699219 19.101562 0.925781 21.5 1.675781 C 23.976562 2.425781 28.25 5.726562 28.25 5.726562 " clip-rule="nonzero"/></clipPath><clipPath id="b7a7be9b26"><rect x="0" width="33" y="0" height="34"/></clipPath><clipPath id="1e9d516c8a"><path d="M 101.460938 284.597656 L 165.820312 284.597656 L 165.820312 333 L 101.460938 333 Z M 101.460938 284.597656 " clip-rule="nonzero"/></clipPath><clipPath id="3f853e9fc9"><path d="M 124.949219 285.824219 C 159.300781 301.875 161.101562 303.601562 162.449219 305.398438 C 163.5 306.675781 163.949219 307.875 164.476562 309.148438 C 164.925781 310.5 165.375 311.625 165.449219 313.273438 C 165.601562 315.523438 165.375 319.050781 164.476562 321.601562 C 163.5 324.148438 161.699219 326.699219 159.675781 328.5 C 157.648438 330.300781 154.875 331.726562 152.25 332.398438 C 149.625 333.074219 146.101562 332.773438 143.851562 332.398438 C 142.273438 332.101562 141.300781 331.648438 139.949219 330.898438 C 138.300781 329.925781 136.199219 328.425781 134.851562 326.851562 C 133.574219 325.425781 132.601562 323.773438 131.851562 322.050781 C 131.175781 320.324219 130.726562 318.375 130.574219 316.5 C 130.5 314.625 130.648438 312.675781 131.175781 310.875 C 131.625 309.074219 132.449219 307.273438 133.5 305.699219 C 134.476562 304.125 135.824219 302.699219 137.324219 301.574219 C 138.824219 300.449219 140.550781 299.476562 142.273438 298.875 C 144.074219 298.199219 146.023438 297.898438 147.898438 297.898438 C 149.773438 297.824219 151.726562 298.125 153.449219 298.726562 C 155.25 299.324219 157.050781 300.226562 158.550781 301.351562 C 160.050781 302.476562 161.398438 303.898438 162.449219 305.398438 C 163.5 306.976562 164.398438 308.699219 164.925781 310.5 C 165.375 312.300781 165.675781 314.324219 165.601562 316.125 C 165.449219 318 165.074219 319.949219 164.398438 321.675781 C 163.726562 323.398438 162.75 325.125 161.550781 326.550781 C 160.351562 328.050781 158.851562 329.324219 157.273438 330.300781 C 155.699219 331.273438 153.824219 332.023438 152.023438 332.476562 C 150.226562 332.851562 148.199219 333 146.324219 332.851562 C 144.523438 332.625 142.574219 332.101562 140.851562 331.351562 C 139.199219 330.601562 137.550781 329.476562 136.125 328.199219 C 134.773438 326.925781 133.574219 325.425781 132.675781 323.773438 C 131.773438 322.125 131.101562 320.25 130.800781 318.375 C 130.5 316.574219 130.5 314.550781 130.726562 312.75 C 131.023438 310.875 131.625 309 132.523438 307.351562 C 133.351562 305.699219 134.550781 304.125 135.898438 302.773438 C 137.25 301.5 138.898438 300.375 140.550781 299.550781 C 142.199219 298.800781 144.148438 298.199219 146.023438 297.976562 C 147.824219 297.75 149.925781 297.898438 151.648438 298.273438 C 153.300781 298.574219 154.800781 299.175781 156.226562 299.851562 C 157.5 300.523438 158.550781 301.125 159.675781 302.25 C 161.324219 303.898438 163.5 306.601562 164.476562 309.148438 C 165.375 311.699219 165.75 314.773438 165.449219 317.476562 C 165.148438 320.175781 164.023438 323.101562 162.449219 325.351562 C 160.949219 327.523438 158.625 329.625 156.226562 330.898438 C 153.824219 332.175781 150.375 332.773438 148.050781 332.925781 C 146.476562 333 145.574219 332.851562 143.851562 332.398438 C 141.074219 331.648438 137.398438 329.925781 133.125 327.898438 C 126.523438 324.75 113.398438 318.75 108.449219 314.699219 C 105.75 312.523438 104.398438 310.425781 103.351562 308.550781 C 102.601562 307.199219 102.300781 306 102.074219 304.726562 C 101.773438 303.375 101.550781 302.25 101.699219 300.675781 C 101.925781 298.5 102.898438 294.898438 103.875 292.949219 C 104.550781 291.601562 105.148438 290.773438 106.351562 289.726562 C 107.925781 288.226562 111.074219 286.273438 113.101562 285.449219 C 114.523438 284.851562 115.5 284.625 117 284.625 C 119.175781 284.550781 124.949219 285.824219 124.949219 285.824219 " clip-rule="nonzero"/></clipPath><clipPath id="359068bc65"><path d="M 0.519531 0.597656 L 64.820312 0.597656 L 64.820312 49 L 0.519531 49 Z M 0.519531 0.597656 " clip-rule="nonzero"/></clipPath><clipPath id="6ce787f5d5"><path d="M 23.949219 1.824219 C 58.300781 17.875 60.101562 19.601562 61.449219 21.398438 C 62.5 22.675781 62.949219 23.875 63.476562 25.148438 C 63.925781 26.5 64.375 27.625 64.449219 29.273438 C 64.601562 31.523438 64.375 35.050781 63.476562 37.601562 C 62.5 40.148438 60.699219 42.699219 58.675781 44.5 C 56.648438 46.300781 53.875 47.726562 51.25 48.398438 C 48.625 49.074219 45.101562 48.773438 42.851562 48.398438 C 41.273438 48.101562 40.300781 47.648438 38.949219 46.898438 C 37.300781 45.925781 35.199219 44.425781 33.851562 42.851562 C 32.574219 41.425781 31.601562 39.773438 30.851562 38.050781 C 30.175781 36.324219 29.726562 34.375 29.574219 32.5 C 29.5 30.625 29.648438 28.675781 30.175781 26.875 C 30.625 25.074219 31.449219 23.273438 32.5 21.699219 C 33.476562 20.125 34.824219 18.699219 36.324219 17.574219 C 37.824219 16.449219 39.550781 15.476562 41.273438 14.875 C 43.074219 14.199219 45.023438 13.898438 46.898438 13.898438 C 48.773438 13.824219 50.726562 14.125 52.449219 14.726562 C 54.25 15.324219 56.050781 16.226562 57.550781 17.351562 C 59.050781 18.476562 60.398438 19.898438 61.449219 21.398438 C 62.5 22.976562 63.398438 24.699219 63.925781 26.5 C 64.375 28.300781 64.675781 30.324219 64.601562 32.125 C 64.449219 34 64.074219 35.949219 63.398438 37.675781 C 62.726562 39.398438 61.75 41.125 60.550781 42.550781 C 59.351562 44.050781 57.851562 45.324219 56.273438 46.300781 C 54.699219 47.273438 52.824219 48.023438 51.023438 48.476562 C 49.226562 48.851562 47.199219 49 45.324219 48.851562 C 43.523438 48.625 41.574219 48.101562 39.851562 47.351562 C 38.199219 46.601562 36.550781 45.476562 35.125 44.199219 C 33.773438 42.925781 32.574219 41.425781 31.675781 39.773438 C 30.773438 38.125 30.101562 36.25 29.800781 34.375 C 29.5 32.574219 29.5 30.550781 29.726562 28.75 C 30.023438 26.875 30.625 25 31.523438 23.351562 C 32.351562 21.699219 33.550781 20.125 34.898438 18.773438 C 36.25 17.5 37.898438 16.375 39.550781 15.550781 C 41.199219 14.800781 43.148438 14.199219 45.023438 13.976562 C 46.824219 13.75 48.925781 13.898438 50.648438 14.273438 C 52.300781 14.574219 53.800781 15.175781 55.226562 15.851562 C 56.5 16.523438 57.550781 17.125 58.675781 18.25 C 60.324219 19.898438 62.5 22.601562 63.476562 25.148438 C 64.375 27.699219 64.75 30.773438 64.449219 33.476562 C 64.148438 36.175781 63.023438 39.101562 61.449219 41.351562 C 59.949219 43.523438 57.625 45.625 55.226562 46.898438 C 52.824219 48.175781 49.375 48.773438 47.050781 48.925781 C 45.476562 49 44.574219 48.851562 42.851562 48.398438 C 40.074219 47.648438 36.398438 45.925781 32.125 43.898438 C 25.523438 40.75 12.398438 34.75 7.449219 30.699219 C 4.75 28.523438 3.398438 26.425781 2.351562 24.550781 C 1.601562 23.199219 1.300781 22 1.074219 20.726562 C 0.773438 19.375 0.550781 18.25 0.699219 16.675781 C 0.925781 14.5 1.898438 10.898438 2.875 8.949219 C 3.550781 7.601562 4.148438 6.773438 5.351562 5.726562 C 6.925781 4.226562 10.074219 2.273438 12.101562 1.449219 C 13.523438 0.851562 14.5 0.625 16 0.625 C 18.175781 0.550781 23.949219 1.824219 23.949219 1.824219 " clip-rule="nonzero"/></clipPath><clipPath id="96ea19ffe2"><rect x="0" width="65" y="0" height="49"/></clipPath><clipPath id="250db48630"><path d="M 137.046875 305.269531 L 169.550781 305.269531 L 169.550781 338.527344 L 137.046875 338.527344 Z M 137.046875 305.269531 " clip-rule="nonzero"/></clipPath><clipPath id="ab58469ec6"><path d="M 169.425781 317.023438 C 169.425781 327.375 168.226562 330.074219 166.648438 332.101562 C 165.074219 334.050781 162.75 335.925781 160.425781 336.976562 C 158.101562 338.023438 155.175781 338.550781 152.625 338.398438 C 150.074219 338.25 147.300781 337.351562 145.125 336 C 142.949219 334.726562 140.851562 332.625 139.5 330.449219 C 138.226562 328.273438 137.324219 325.425781 137.175781 322.875 C 137.023438 320.324219 137.550781 317.476562 138.601562 315.148438 C 139.648438 312.824219 141.449219 310.5 143.476562 308.925781 C 145.5 307.351562 148.199219 306.148438 150.675781 305.699219 C 153.226562 305.175781 156.148438 305.398438 158.550781 306.148438 C 161.023438 306.898438 165.300781 310.199219 165.300781 310.199219 " clip-rule="nonzero"/></clipPath><clipPath id="ccc7fa525c"><path d="M 0.046875 0.269531 L 32.441406 0.269531 L 32.441406 33.527344 L 0.046875 33.527344 Z M 0.046875 0.269531 " clip-rule="nonzero"/></clipPath><clipPath id="c51ab7ce1c"><path d="M 32.425781 12.023438 C 32.425781 22.375 31.226562 25.074219 29.648438 27.101562 C 28.074219 29.050781 25.75 30.925781 23.425781 31.976562 C 21.101562 33.023438 18.175781 33.550781 15.625 33.398438 C 13.074219 33.25 10.300781 32.351562 8.125 31 C 5.949219 29.726562 3.851562 27.625 2.5 25.449219 C 1.226562 23.273438 0.324219 20.425781 0.175781 17.875 C 0.0234375 15.324219 0.550781 12.476562 1.601562 10.148438 C 2.648438 7.824219 4.449219 5.5 6.476562 3.925781 C 8.5 2.351562 11.199219 1.148438 13.675781 0.699219 C 16.226562 0.175781 19.148438 0.398438 21.550781 1.148438 C 24.023438 1.898438 28.300781 5.199219 28.300781 5.199219 " clip-rule="nonzero"/></clipPath><clipPath id="bc094ad5ed"><rect x="0" width="33" y="0" height="34"/></clipPath><clipPath id="bcf0248d05"><path d="M 95 147 L 202.40625 147 L 202.40625 228 L 95 228 Z M 95 147 " clip-rule="nonzero"/></clipPath><clipPath id="56b71bdccf"><path d="M 103 149 L 202.40625 149 L 202.40625 226 L 103 226 Z M 103 149 " clip-rule="nonzero"/></clipPath><clipPath id="8ee21dc5d5"><path d="M 87.65625 146.480469 L 202.40625 146.480469 L 202.40625 228.230469 L 87.65625 228.230469 Z M 87.65625 146.480469 " clip-rule="nonzero"/></clipPath><clipPath id="48aeaab308"><path d="M 78.003906 150.320312 L 98.921875 150.320312 L 98.921875 221.230469 L 78.003906 221.230469 Z M 78.003906 150.320312 " clip-rule="nonzero"/></clipPath><clipPath id="6a8c8ad494"><path d="M 98.101562 159.449219 C 93.074219 170.476562 92.550781 175.050781 92.175781 179.101562 C 91.726562 183.226562 91.648438 188.101562 91.726562 191.550781 C 91.800781 193.949219 91.875 195.148438 92.324219 197.625 C 93.074219 201.675781 96.449219 209.851562 96.449219 213.449219 C 96.449219 215.398438 95.925781 216.75 95.398438 217.875 C 95.023438 218.625 94.574219 219.074219 93.898438 219.523438 C 92.851562 220.273438 90.824219 221.023438 89.625 221.101562 C 88.800781 221.25 88.199219 221.175781 87.375 220.875 C 86.25 220.425781 84.523438 219.375 83.699219 218.25 C 82.875 217.050781 82.351562 215.324219 82.351562 213.898438 C 82.425781 212.476562 83.25 210.675781 83.925781 209.699219 C 84.375 208.949219 84.824219 208.574219 85.574219 208.125 C 86.699219 207.601562 88.726562 207.074219 90 207.074219 C 90.824219 207.074219 91.5 207.300781 92.175781 207.601562 C 92.851562 207.898438 93.523438 208.199219 94.125 208.800781 C 94.949219 209.699219 96.074219 211.351562 96.375 212.699219 C 96.601562 214.125 96.375 215.925781 95.773438 217.199219 C 95.101562 218.476562 93.824219 219.75 92.625 220.425781 C 91.351562 221.023438 89.550781 221.25 88.125 221.023438 C 86.699219 220.726562 85.351562 220.199219 84.226562 218.851562 C 81.976562 216.148438 80.023438 208.574219 79.050781 203.699219 C 78.148438 199.425781 78.074219 195.824219 78.074219 191.25 C 78.074219 185.699219 78.898438 177.226562 79.648438 172.726562 C 80.023438 170.101562 80.476562 168.601562 81.074219 166.574219 C 81.75 164.550781 82.351562 162.675781 83.324219 160.648438 C 84.449219 158.25 86.101562 155.023438 87.601562 153.300781 C 88.648438 152.023438 89.699219 150.976562 90.976562 150.601562 C 92.25 150.148438 94.125 150.375 95.25 150.75 C 96.226562 151.125 96.976562 151.800781 97.574219 152.550781 C 98.175781 153.226562 98.699219 154.125 98.851562 155.175781 C 99 156.375 98.101562 159.449219 98.101562 159.449219 " clip-rule="nonzero"/></clipPath><clipPath id="26a4a91cc8"><path d="M 0.00390625 0.320312 L 20.921875 0.320312 L 20.921875 71.230469 L 0.00390625 71.230469 Z M 0.00390625 0.320312 " clip-rule="nonzero"/></clipPath><clipPath id="5474ebb8be"><path d="M 20.101562 9.449219 C 15.074219 20.476562 14.550781 25.050781 14.175781 29.101562 C 13.726562 33.226562 13.648438 38.101562 13.726562 41.550781 C 13.800781 43.949219 13.875 45.148438 14.324219 47.625 C 15.074219 51.675781 18.449219 59.851562 18.449219 63.449219 C 18.449219 65.398438 17.925781 66.75 17.398438 67.875 C 17.023438 68.625 16.574219 69.074219 15.898438 69.523438 C 14.851562 70.273438 12.824219 71.023438 11.625 71.101562 C 10.800781 71.25 10.199219 71.175781 9.375 70.875 C 8.25 70.425781 6.523438 69.375 5.699219 68.25 C 4.875 67.050781 4.351562 65.324219 4.351562 63.898438 C 4.425781 62.476562 5.25 60.675781 5.925781 59.699219 C 6.375 58.949219 6.824219 58.574219 7.574219 58.125 C 8.699219 57.601562 10.726562 57.074219 12 57.074219 C 12.824219 57.074219 13.5 57.300781 14.175781 57.601562 C 14.851562 57.898438 15.523438 58.199219 16.125 58.800781 C 16.949219 59.699219 18.074219 61.351562 18.375 62.699219 C 18.601562 64.125 18.375 65.925781 17.773438 67.199219 C 17.101562 68.476562 15.824219 69.75 14.625 70.425781 C 13.351562 71.023438 11.550781 71.25 10.125 71.023438 C 8.699219 70.726562 7.351562 70.199219 6.226562 68.851562 C 3.976562 66.148438 2.023438 58.574219 1.050781 53.699219 C 0.148438 49.425781 0.0742188 45.824219 0.0742188 41.25 C 0.0742188 35.699219 0.898438 27.226562 1.648438 22.726562 C 2.023438 20.101562 2.476562 18.601562 3.074219 16.574219 C 3.75 14.550781 4.351562 12.675781 5.324219 10.648438 C 6.449219 8.25 8.101562 5.023438 9.601562 3.300781 C 10.648438 2.023438 11.699219 0.976562 12.976562 0.601562 C 14.25 0.148438 16.125 0.375 17.25 0.75 C 18.226562 1.125 18.976562 1.800781 19.574219 2.550781 C 20.175781 3.226562 20.699219 4.125 20.851562 5.175781 C 21 6.375 20.101562 9.449219 20.101562 9.449219 " clip-rule="nonzero"/></clipPath><clipPath id="afca4055c4"><rect x="0" width="21" y="0" height="72"/></clipPath><clipPath id="800d779367"><path d="M 272.324219 275.539062 L 276.140625 275.539062 L 276.140625 279.324219 L 272.324219 279.324219 Z M 272.324219 275.539062 " clip-rule="nonzero"/></clipPath><clipPath id="4b971d4626"><path d="M 276.125 276.808594 C 275.625 278.8125 275.351562 278.976562 275.074219 279.136719 C 274.796875 279.246094 274.464844 279.355469 274.132812 279.300781 C 273.691406 279.191406 272.914062 278.703125 272.636719 278.378906 C 272.417969 278.109375 272.304688 277.835938 272.363281 277.511719 C 272.363281 277.023438 272.636719 276.210938 273.082031 275.886719 C 273.523438 275.5625 274.410156 275.507812 274.851562 275.5625 C 275.183594 275.617188 275.625 276.050781 275.625 276.050781 " clip-rule="nonzero"/></clipPath><clipPath id="add41a151a"><path d="M 0.324219 0.539062 L 4.140625 0.539062 L 4.140625 4.324219 L 0.324219 4.324219 Z M 0.324219 0.539062 " clip-rule="nonzero"/></clipPath><clipPath id="3f2da026bb"><path d="M 4.125 1.808594 C 3.625 3.8125 3.351562 3.976562 3.074219 4.136719 C 2.796875 4.246094 2.464844 4.355469 2.132812 4.300781 C 1.691406 4.191406 0.914062 3.703125 0.636719 3.378906 C 0.417969 3.109375 0.304688 2.835938 0.363281 2.511719 C 0.363281 2.023438 0.636719 1.210938 1.082031 0.886719 C 1.523438 0.5625 2.410156 0.507812 2.851562 0.5625 C 3.183594 0.617188 3.625 1.050781 3.625 1.050781 " clip-rule="nonzero"/></clipPath><clipPath id="c3422c4ef6"><rect x="0" width="5" y="0" height="5"/></clipPath><clipPath id="9a25f62269"><path d="M 0 0 L 336 0 L 336 238 L 0 238 Z M 0 0 " clip-rule="nonzero"/></clipPath><clipPath id="73a56300e8"><path d="M 0 79 L 234 79 L 234 375 L 0 375 Z M 0 79 " clip-rule="nonzero"/></clipPath><clipPath id="1235ae72c4"><path d="M 72 232 L 255 232 L 255 375 L 72 375 Z M 72 232 " clip-rule="nonzero"/></clipPath><clipPath id="bcfdc462be"><path d="M 142 207 L 363 207 L 363 375 L 142 375 Z M 142 207 " clip-rule="nonzero"/></clipPath><clipPath id="df9929ee1c"><path d="M 183 104 L 375 104 L 375 364 L 183 364 Z M 183 104 " clip-rule="nonzero"/></clipPath><clipPath id="811e3686bd"><path d="M 150 0 L 375 0 L 375 205 L 150 205 Z M 150 0 " clip-rule="nonzero"/></clipPath><clipPath id="72ec4cf753"><path d="M 204 20 L 375 20 L 375 275 L 204 275 Z M 204 20 " clip-rule="nonzero"/></clipPath><clipPath id="c4664e8dd2"><rect x="0" width="375" y="0" height="375"/></clipPath></defs><g clip-path="url(#2ff535c3ef)"><g clip-path="url(#07a315ab66)"><g transform="matrix(1, 0, 0, 1, 62, 45)"><g clip-path="url(#2b08fcf8c2)"><g clip-path="url(#a88d32ad68)"><g clip-path="url(#0aba76cada)"><rect x="-144.5" width="540" fill="#de6e13" height="539.999987" y="-127.499998" fill-opacity="1"/></g></g></g></g></g></g><g clip-path="url(#d4f341df6a)"><g clip-path="url(#bf366f2117)"><g transform="matrix(1, 0, 0, 1, 180, 108)"><g clip-path="url(#5eb500ed13)"><g clip-path="url(#bfbc720ed4)"><g clip-path="url(#572e09b46c)"><rect x="-262.5" width="540" fill="#de6e13" height="539.999987" y="-190.499998" fill-opacity="1"/></g></g></g></g></g></g><g clip-path="url(#ae47173e69)"><g clip-path="url(#a798d81797)"><g transform="matrix(1, 0, 0, 1, 41, 156)"><g clip-path="url(#b8196ed844)"><g clip-path="url(#b26191a33a)"><g clip-path="url(#585863b254)"><rect x="-123.5" width="540" fill="#de6e13" height="539.999987" y="-238.499998" fill-opacity="1"/></g></g></g></g></g></g><g clip-path="url(#08b92ab586)"><g clip-path="url(#5542ee0216)"><g transform="matrix(1, 0, 0, 1, 81, 176)"><g clip-path="url(#9198a71eed)"><g clip-path="url(#72675ccaa6)"><g clip-path="url(#6087a362fc)"><rect x="-163.5" width="540" fill="#de6e13" height="539.999987" y="-258.499998" fill-opacity="1"/></g></g></g></g></g></g><g clip-path="url(#e5056acfe7)"><g clip-path="url(#28fc4176af)"><g transform="matrix(1, 0, 0, 1, 57, 229)"><g clip-path="url(#b394ab9743)"><g clip-path="url(#7b33c8f1f9)"><g clip-path="url(#953b470f08)"><rect x="-139.5" width="540" fill="#de6e13" height="539.999987" y="-311.499998" fill-opacity="1"/></g></g></g></g></g></g><g clip-path="url(#dd7279ac7e)"><g clip-path="url(#8419eab83e)"><g transform="matrix(1, 0, 0, 1, 196, 28)"><g clip-path="url(#e00ef4d72e)"><g clip-path="url(#f0065047f8)"><g clip-path="url(#69265f930c)"><rect x="-278.5" width="540" fill="#de6e13" height="539.999987" y="-110.499998" fill-opacity="1"/></g></g></g></g></g></g><g clip-path="url(#a7e518bee2)"><g clip-path="url(#d598282763)"><g transform="matrix(1, 0, 0, 1, 219, 23)"><g clip-path="url(#2af8f3f146)"><g clip-path="url(#d65e889991)"><g clip-path="url(#18478848b8)"><rect x="-301.5" width="540" fill="#de6e13" height="539.999987" y="-105.499998" fill-opacity="1"/></g></g></g></g></g></g><g clip-path="url(#de708ad14c)"><g clip-path="url(#711bead186)"><g transform="matrix(1, 0, 0, 1, 243, 111)"><g clip-path="url(#36ce1ddeca)"><g clip-path="url(#61da3dd581)"><g clip-path="url(#02e854e9aa)"><rect x="-325.5" width="540" fill="#de6e13" height="539.999987" y="-193.499998" fill-opacity="1"/></g></g></g></g></g></g><g clip-path="url(#1b87ff0fe2)"><g clip-path="url(#fba169eed6)"><g transform="matrix(1, 0, 0, 1, 253, 147)"><g clip-path="url(#3d07b55809)"><g clip-path="url(#b594596c81)"><g clip-path="url(#d1c5b5f17f)"><rect x="-335.5" width="540" fill="#de6e13" height="539.999987" y="-229.499998" fill-opacity="1"/></g></g></g></g></g></g><g clip-path="url(#f8e224c409)"><g clip-path="url(#718dce4c21)"><g transform="matrix(1, 0, 0, 1, 275, 190)"><g clip-path="url(#7f4cfd1bb9)"><g clip-path="url(#664d5cf207)"><g clip-path="url(#336cd30634)"><rect x="-357.5" width="540" fill="#de6e13" height="539.999987" y="-272.499998" fill-opacity="1"/></g></g></g></g></g></g><g clip-path="url(#ce47bc6d64)"><g clip-path="url(#19bd984ef0)"><g transform="matrix(1, 0, 0, 1, 295, 188)"><g clip-path="url(#e39949eaf5)"><g clip-path="url(#4075115fab)"><g clip-path="url(#0f5d77d344)"><rect x="-377.5" width="540" fill="#de6e13" height="539.999987" y="-270.499998" fill-opacity="1"/></g></g></g></g></g></g><g clip-path="url(#d16f3b7dc6)"><g clip-path="url(#374eaa7733)"><g transform="matrix(1, 0, 0, 1, 214, 275)"><g clip-path="url(#f9b79c60a3)"><g clip-path="url(#a72c49110e)"><g clip-path="url(#8cac9a0851)"><rect x="-296.5" width="540" fill="#de6e13" height="539.999987" y="-357.499998" fill-opacity="1"/></g></g></g></g></g></g><g clip-path="url(#667459db80)"><g clip-path="url(#2115dbb3bb)"><g transform="matrix(1, 0, 0, 1, 226, 281)"><g clip-path="url(#b7a7be9b26)"><g clip-path="url(#fa8304779a)"><g clip-path="url(#cea8b20333)"><rect x="-308.5" width="540" fill="#de6e13" height="539.999987" y="-363.499998" fill-opacity="1"/></g></g></g></g></g></g><g clip-path="url(#1e9d516c8a)"><g clip-path="url(#3f853e9fc9)"><g transform="matrix(1, 0, 0, 1, 101, 284)"><g clip-path="url(#96ea19ffe2)"><g clip-path="url(#359068bc65)"><g clip-path="url(#6ce787f5d5)"><rect x="-183.5" width="540" fill="#de6e13" height="539.999987" y="-366.499998" fill-opacity="1"/></g></g></g></g></g></g><g clip-path="url(#250db48630)"><g clip-path="url(#ab58469ec6)"><g transform="matrix(1, 0, 0, 1, 137, 305)"><g clip-path="url(#bc094ad5ed)"><g clip-path="url(#ccc7fa525c)"><g clip-path="url(#c51ab7ce1c)"><rect x="-219.5" width="540" fill="#de6e13" height="539.999987" y="-387.499998" fill-opacity="1"/></g></g></g></g></g></g><path stroke-linecap="round" transform="matrix(-0.749162, 0.0354528, -0.0354528, -0.749162, 187.496565, 283.663928)" fill="none" stroke-linejoin="miter" d="M 12.011615 41.259573 C 46.236589 -2.025153 72.075501 -2.413546 89.538756 40.094888 " stroke="#000000" stroke-width="17" stroke-opacity="1" stroke-miterlimit="4"/><g clip-path="url(#bcf0248d05)"><path fill="#e65700" d="M 147.050781 187.496094 C 147.050781 204.625 140.234375 219.265625 130.613281 225.171875 C 127.679688 226.972656 124.480469 227.960938 121.136719 227.960938 C 106.828125 227.960938 95.226562 209.84375 95.226562 187.496094 C 95.226562 165.144531 106.828125 147.023438 121.136719 147.023438 C 124.480469 147.023438 127.671875 148.011719 130.613281 149.8125 C 140.234375 155.722656 147.046875 170.363281 147.046875 187.492188 Z M 189.980469 153.289062 C 189.980469 153.289062 189.976562 153.28125 189.972656 153.28125 C 185.964844 149.316406 181.214844 147.023438 176.125 147.023438 C 164.3125 147.023438 154.34375 159.367188 151.226562 176.242188 C 150.566406 179.8125 150.210938 183.589844 150.210938 187.492188 C 150.210938 191.394531 150.5625 195.167969 151.226562 198.742188 C 154.347656 215.617188 164.3125 227.960938 176.125 227.960938 C 181.214844 227.960938 185.964844 225.664062 189.972656 221.703125 C 189.976562 221.703125 189.976562 221.699219 189.980469 221.695312 C 197.222656 214.523438 202.035156 201.886719 202.035156 187.492188 C 202.035156 173.097656 197.222656 160.460938 189.980469 153.289062 Z M 189.980469 153.289062 " fill-opacity="1" fill-rule="nonzero"/></g><g clip-path="url(#56b71bdccf)"><path fill="#ffffff" d="M 147.050781 187.496094 C 147.050781 204.625 140.234375 219.265625 130.613281 225.171875 C 129.773438 225.3125 128.921875 225.382812 128.058594 225.382812 C 114.660156 225.382812 103.800781 208.421875 103.800781 187.496094 C 103.800781 166.566406 114.660156 149.605469 128.058594 149.605469 C 128.921875 149.605469 129.773438 149.675781 130.613281 149.816406 C 140.234375 155.722656 147.046875 170.367188 147.046875 187.496094 Z M 189.980469 153.289062 C 189.980469 153.289062 189.976562 153.28125 189.972656 153.28125 C 186.8125 150.921875 183.269531 149.605469 179.535156 149.605469 C 166.136719 149.605469 155.277344 166.566406 155.277344 187.492188 C 155.277344 208.417969 166.136719 225.378906 179.535156 225.378906 C 183.269531 225.378906 186.808594 224.0625 189.972656 221.703125 C 189.976562 221.703125 189.976562 221.699219 189.980469 221.695312 C 197.222656 214.523438 202.035156 201.886719 202.035156 187.492188 C 202.035156 173.097656 197.222656 160.460938 189.980469 153.289062 Z M 189.980469 153.289062 " fill-opacity="1" fill-rule="nonzero"/></g><g clip-path="url(#8ee21dc5d5)"><path fill="#000000" d="M 127.796875 160.589844 C 120.707031 160.589844 114.621094 167.28125 111.976562 176.835938 C 116.984375 180.523438 124.277344 185.949219 125.460938 187.097656 C 127.292969 188.875 124.960938 189.542969 123.292969 189.652344 C 122.324219 189.71875 115.867188 189.972656 110.65625 190.171875 C 111.519531 203.773438 118.859375 214.398438 127.796875 214.398438 C 137.3125 214.398438 145.019531 202.351562 145.019531 187.496094 C 145.019531 172.636719 137.3125 160.589844 127.796875 160.589844 Z M 141.394531 174.820312 C 139.203125 175.375 138.46875 176.296875 138.101562 179.796875 C 138.066406 180.160156 137.535156 180.160156 137.496094 179.796875 C 137.132812 176.296875 136.402344 175.375 134.207031 174.820312 C 133.898438 174.742188 133.898438 174.308594 134.207031 174.226562 C 136.398438 173.675781 137.132812 172.753906 137.496094 169.253906 C 137.535156 168.886719 138.070312 168.886719 138.101562 169.253906 C 138.46875 172.753906 139.199219 173.675781 141.394531 174.226562 C 141.703125 174.304688 141.703125 174.742188 141.394531 174.820312 Z M 182.78125 160.589844 C 175.59375 160.589844 169.433594 167.472656 166.855469 177.246094 C 171.828125 180.917969 178.640625 185.992188 179.785156 187.101562 C 181.617188 188.878906 179.285156 189.546875 177.617188 189.65625 C 176.683594 189.71875 170.71875 189.953125 165.640625 190.148438 C 166.496094 203.761719 173.84375 214.398438 182.78125 214.398438 C 192.296875 214.398438 200.007812 202.351562 200.007812 187.496094 C 200.007812 172.636719 192.296875 160.589844 182.78125 160.589844 Z M 196.273438 174.820312 C 194.074219 175.375 193.34375 176.296875 192.980469 179.796875 C 192.941406 180.160156 192.414062 180.160156 192.375 179.796875 C 192.007812 176.296875 191.277344 175.375 189.082031 174.820312 C 188.773438 174.742188 188.773438 174.308594 189.082031 174.226562 C 191.273438 173.675781 192.007812 172.753906 192.375 169.253906 C 192.414062 168.886719 192.945312 168.886719 192.980469 169.253906 C 193.34375 172.753906 194.074219 173.675781 196.273438 174.226562 C 196.578125 174.304688 196.578125 174.742188 196.273438 174.820312 Z M 95.359375 213.183594 C 95.585938 213.675781 95.367188 214.257812 94.875 214.480469 C 94.742188 214.539062 94.605469 214.570312 94.46875 214.570312 C 94.097656 214.570312 93.742188 214.355469 93.578125 213.992188 C 86.675781 198.792969 87.042969 184.972656 88.570312 176.054688 C 90.222656 166.378906 93.476562 160.371094 93.613281 160.117188 C 93.871094 159.644531 94.46875 159.472656 94.941406 159.730469 C 95.414062 159.992188 95.589844 160.585938 95.328125 161.058594 C 95.296875 161.117188 92.074219 167.085938 90.484375 176.460938 C 89.023438 185.089844 88.679688 198.46875 95.363281 213.183594 Z M 130.867188 149.398438 C 127.773438 147.496094 124.496094 146.535156 121.136719 146.535156 C 106.578125 146.535156 94.734375 164.910156 94.734375 187.496094 C 94.734375 210.078125 106.578125 228.453125 121.136719 228.453125 C 124.496094 228.453125 127.773438 227.488281 130.867188 225.589844 C 140.992188 219.371094 147.535156 204.414062 147.535156 187.492188 C 147.535156 170.570312 140.992188 155.617188 130.867188 149.398438 Z M 130.355469 224.753906 C 127.414062 226.558594 124.3125 227.472656 121.136719 227.472656 C 107.121094 227.472656 95.714844 209.539062 95.714844 187.496094 C 95.714844 165.449219 107.121094 147.511719 121.136719 147.511719 C 124.3125 147.511719 127.414062 148.429688 130.355469 150.230469 C 140.199219 156.277344 146.558594 170.902344 146.558594 187.492188 C 146.558594 204.082031 140.199219 218.710938 130.355469 224.753906 Z M 190.367188 152.984375 L 190.25 152.796875 L 190.175781 152.796875 C 185.976562 148.699219 181.121094 146.535156 176.125 146.535156 C 170.242188 146.535156 164.679688 149.460938 160.039062 154.988281 C 155.589844 160.296875 152.285156 167.8125 150.746094 176.15625 C 150.070312 179.816406 149.722656 183.628906 149.722656 187.496094 C 149.722656 191.359375 150.070312 195.171875 150.746094 198.832031 C 152.285156 207.171875 155.589844 214.691406 160.039062 220 C 164.679688 225.53125 170.246094 228.453125 176.125 228.453125 C 181.125 228.453125 185.976562 226.289062 190.175781 222.191406 L 190.25 222.191406 L 190.367188 222.003906 C 197.980469 214.4375 202.523438 201.542969 202.523438 187.496094 C 202.523438 173.445312 197.972656 160.542969 190.367188 152.984375 Z M 189.691406 221.296875 L 189.628906 221.355469 C 185.585938 225.359375 180.914062 227.472656 176.125 227.472656 C 164.886719 227.472656 154.847656 215.621094 151.710938 198.65625 C 151.042969 195.054688 150.703125 191.296875 150.703125 187.496094 C 150.703125 183.691406 151.042969 179.933594 151.710938 176.332031 C 154.847656 159.367188 164.886719 147.515625 176.125 147.515625 C 180.902344 147.515625 185.5625 149.621094 189.597656 153.601562 L 189.636719 153.640625 C 197.09375 161.023438 201.542969 173.679688 201.542969 187.496094 C 201.542969 201.308594 197.121094 213.894531 189.691406 221.296875 Z M 189.691406 221.296875 " fill-opacity="1" fill-rule="nonzero"/></g><g clip-path="url(#48aeaab308)"><g clip-path="url(#6a8c8ad494)"><g transform="matrix(1, 0, 0, 1, 78, 150)"><g clip-path="url(#afca4055c4)"><g clip-path="url(#26a4a91cc8)"><g clip-path="url(#5474ebb8be)"><rect x="-160.5" width="540" fill="#de6e13" height="539.999987" y="-232.499998" fill-opacity="1"/></g></g></g></g></g></g><g transform="matrix(1, 0, 0, 1, 0, 0)"><g clip-path="url(#c4664e8dd2)"><g clip-path="url(#800d779367)"><g clip-path="url(#4b971d4626)"><g transform="matrix(1, 0, 0, 1, 272, 275)"><g clip-path="url(#c3422c4ef6)"><g clip-path="url(#add41a151a)"><g clip-path="url(#3f2da026bb)"><rect x="-408.5" width="648" fill="#ee6000" y="-411.499997" height="647.999984" fill-opacity="1"/></g></g></g></g></g></g><g clip-path="url(#9a25f62269)"><path stroke-linecap="round" transform="matrix(0.438748, -0.317952, 0.317952, 0.438748, 41.682448, 139.842516)" fill="none" stroke-linejoin="miter" d="M 17.083191 54.272089 C 159.875565 -0.796766 303.773857 -0.754836 448.774853 54.377745 " stroke="#de6d13" stroke-width="26" stroke-opacity="1" stroke-miterlimit="4"/></g><g clip-path="url(#73a56300e8)"><path stroke-linecap="round" transform="matrix(-0.238936, -0.486316, 0.486316, -0.238936, 95.588194, 374.993735)" fill="none" stroke-linejoin="miter" d="M 18.507993 128.633803 C 161.129134 -25.138867 282.318102 -25.541877 382.065136 127.411944 " stroke="#de6d13" stroke-width="26" stroke-opacity="1" stroke-miterlimit="4"/></g><g clip-path="url(#1235ae72c4)"><path stroke-linecap="round" transform="matrix(0.101768, -0.5322, 0.5322, 0.101768, 140.168419, 340.243043)" fill="none" stroke-linejoin="miter" d="M 14.347318 19.32647 C 8.333463 76.082904 22.450577 75.482597 56.683145 17.521176 " stroke="#de6d13" stroke-width="26" stroke-opacity="1" stroke-miterlimit="4"/></g><path stroke-linecap="round" transform="matrix(0.541843, 0.000000000000000425, -0.000000000000000425, 0.541843, 147.854659, 304.27252)" fill="none" stroke-linejoin="miter" d="M 12.999675 12.999873 L 132.110008 12.999873 " stroke="#de6d13" stroke-width="26" stroke-opacity="1" stroke-miterlimit="4"/><g clip-path="url(#bcfdc462be)"><path stroke-linecap="round" transform="matrix(0.452079, -0.298694, 0.298694, 0.452079, 208.995416, 309.632236)" fill="none" stroke-linejoin="miter" d="M 17.907769 17.872962 C 85.263607 131.319428 114.398323 131.844828 105.309877 19.439173 " stroke="#de6d13" stroke-width="26" stroke-opacity="1" stroke-miterlimit="4"/></g><g clip-path="url(#df9929ee1c)"><path stroke-linecap="round" transform="matrix(0.309336, -0.444864, 0.444864, 0.309336, 251.306414, 286.56584)" fill="none" stroke-linejoin="miter" d="M 16.329707 16.098706 C 91.946964 37.259104 167.143716 37.269275 241.935916 16.126909 " stroke="#de6d13" stroke-width="26" stroke-opacity="1" stroke-miterlimit="4"/></g><g clip-path="url(#811e3686bd)"><path stroke-linecap="round" transform="matrix(-0.308525, -0.445427, 0.445427, -0.308525, 246.388464, 149.473877)" fill="none" stroke-linejoin="miter" d="M 13.542702 141.500252 C 22.122468 -30.440908 77.239793 -29.833126 178.888288 143.345483 " stroke="#de6d13" stroke-width="26" stroke-opacity="1" stroke-miterlimit="4"/></g><g clip-path="url(#72ec4cf753)"><path stroke-linecap="round" transform="matrix(-0.174751, -0.512889, 0.512889, -0.174751, 286.068648, 209.286169)" fill="none" stroke-linejoin="miter" d="M 16.524899 95.885135 C -1.91534 -15.988302 52.008679 -14.607031 178.287957 100.01065 " stroke="#de6d13" stroke-width="26" stroke-opacity="1" stroke-miterlimit="4"/></g></g></g></svg>