<svg xmlns="http://www.w3.org/2000/svg" xmlns:xlink="http://www.w3.org/1999/xlink" width="800" zoomAndPan="magnify" viewBox="0 0 600 599.999999" height="800" preserveAspectRatio="xMidYMid meet" version="1.0"><defs><clipPath id="4ca135c6e9"><path d="M 446.785156 445.339844 L 452.632812 445.339844 L 452.632812 451.285156 L 446.785156 451.285156 Z M 446.785156 445.339844 " clip-rule="nonzero"/></clipPath><clipPath id="f6a1aa4f6b"><path d="M 452.609375 447.335938 C 451.84375 450.484375 451.417969 450.738281 450.992188 450.996094 C 450.566406 451.164062 450.054688 451.335938 449.546875 451.25 C 448.863281 451.082031 447.671875 450.3125 447.246094 449.804688 C 446.90625 449.378906 446.738281 448.953125 446.820312 448.441406 C 446.820312 447.675781 447.246094 446.398438 447.929688 445.886719 C 448.609375 445.375 449.972656 445.292969 450.652344 445.375 C 451.164062 445.460938 451.84375 446.144531 451.84375 446.144531 " clip-rule="nonzero"/></clipPath><clipPath id="3d660dda9d"><path d="M 0.785156 0.339844 L 6.632812 0.339844 L 6.632812 6.285156 L 0.785156 6.285156 Z M 0.785156 0.339844 " clip-rule="nonzero"/></clipPath><clipPath id="e8b82c5c6a"><path d="M 6.609375 2.335938 C 5.84375 5.484375 5.417969 5.738281 4.992188 5.996094 C 4.566406 6.164062 4.054688 6.335938 3.546875 6.25 C 2.863281 6.082031 1.671875 5.3125 1.246094 4.804688 C 0.90625 4.378906 0.738281 3.953125 0.820312 3.441406 C 0.820312 2.675781 1.246094 1.398438 1.929688 0.886719 C 2.609375 0.375 3.972656 0.292969 4.652344 0.375 C 5.164062 0.460938 5.84375 1.144531 5.84375 1.144531 " clip-rule="nonzero"/></clipPath><clipPath id="a7c7ca09d4"><rect x="0" width="7" y="0" height="7"/></clipPath><clipPath id="d05840d40f"><path d="M 4 0 L 547 0 L 547 387 L 4 387 Z M 4 0 " clip-rule="nonzero"/></clipPath><clipPath id="e626dad26e"><path d="M 0 136 L 390 136 L 390 600 L 0 600 Z M 0 136 " clip-rule="nonzero"/></clipPath><clipPath id="33887118b0"><path d="M 136 377 L 423 377 L 423 600 L 136 600 Z M 136 377 " clip-rule="nonzero"/></clipPath><clipPath id="ae70661fde"><path d="M 244 338 L 589 338 L 589 600 L 244 600 Z M 244 338 " clip-rule="nonzero"/></clipPath><clipPath id="c56b881cf4"><path d="M 308 176 L 600 176 L 600 585 L 308 585 Z M 308 176 " clip-rule="nonzero"/></clipPath><clipPath id="f1801ce724"><path d="M 256 0 L 600 0 L 600 334 L 256 334 Z M 256 0 " clip-rule="nonzero"/></clipPath><clipPath id="cea5b30546"><path d="M 339 45 L 600 45 L 600 445 L 339 445 Z M 339 45 " clip-rule="nonzero"/></clipPath><clipPath id="391861baf6"><path d="M 157 294 L 206 294 L 206 373 L 157 373 Z M 157 294 " clip-rule="nonzero"/></clipPath><clipPath id="911df3e9b1"><path d="M 165.890625 290.929688 L 211.753906 299.546875 L 197.210938 376.9375 L 151.351562 368.320312 Z M 165.890625 290.929688 " clip-rule="nonzero"/></clipPath><clipPath id="521f6235f0"><path d="M 188.824219 295.238281 C 176.160156 292.859375 162.640625 308.242188 158.625 329.597656 C 154.613281 350.957031 161.625 370.199219 174.289062 372.578125 C 186.957031 374.957031 200.472656 359.574219 204.488281 338.214844 C 208.5 316.859375 201.488281 297.617188 188.824219 295.238281 Z M 188.824219 295.238281 " clip-rule="nonzero"/></clipPath><clipPath id="89a66f15de"><path d="M 0 0 L 49 0 L 49 79 L 0 79 Z M 0 0 " clip-rule="nonzero"/></clipPath><clipPath id="18f79d2508"><path d="M 8.890625 -3.070312 L 54.753906 5.546875 L 40.210938 82.9375 L -5.648438 74.320312 Z M 8.890625 -3.070312 " clip-rule="nonzero"/></clipPath><clipPath id="98de2e817f"><path d="M 31.824219 1.238281 C 19.160156 -1.140625 5.640625 14.242188 1.625 35.597656 C -2.386719 56.957031 4.625 76.199219 17.289062 78.578125 C 29.957031 80.957031 43.472656 65.574219 47.488281 44.214844 C 51.5 22.859375 44.488281 3.617188 31.824219 1.238281 Z M 31.824219 1.238281 " clip-rule="nonzero"/></clipPath><clipPath id="3b60023c87"><rect x="0" width="49" y="0" height="79"/></clipPath><clipPath id="0f1f3f331b"><path d="M 274 293 L 323 293 L 323 372 L 274 372 Z M 274 293 " clip-rule="nonzero"/></clipPath><clipPath id="ed70ad9e19"><path d="M 282.929688 289.351562 L 328.792969 297.96875 L 314.25 375.359375 L 268.390625 366.742188 Z M 282.929688 289.351562 " clip-rule="nonzero"/></clipPath><clipPath id="86db5d0ab0"><path d="M 305.863281 293.660156 C 293.199219 291.28125 279.679688 306.664062 275.664062 328.019531 C 271.652344 349.378906 278.664062 368.621094 291.332031 371 C 303.996094 373.378906 317.515625 357.996094 321.527344 336.636719 C 325.539062 315.28125 318.527344 296.039062 305.863281 293.660156 Z M 305.863281 293.660156 " clip-rule="nonzero"/></clipPath><clipPath id="321edbc950"><path d="M 0 0 L 49 0 L 49 79 L 0 79 Z M 0 0 " clip-rule="nonzero"/></clipPath><clipPath id="0d3aa909c0"><path d="M 8.929688 -3.648438 L 54.792969 4.96875 L 40.25 82.359375 L -5.609375 73.742188 Z M 8.929688 -3.648438 " clip-rule="nonzero"/></clipPath><clipPath id="a2f4c60719"><path d="M 31.863281 0.660156 C 19.199219 -1.71875 5.679688 13.664062 1.664062 35.019531 C -2.347656 56.378906 4.664062 75.621094 17.332031 78 C 29.996094 80.378906 43.515625 64.996094 47.527344 43.636719 C 51.539062 22.28125 44.527344 3.039062 31.863281 0.660156 Z M 31.863281 0.660156 " clip-rule="nonzero"/></clipPath><clipPath id="0645d4496b"><rect x="0" width="49" y="0" height="79"/></clipPath><clipPath id="fff0c6f280"><rect x="0" width="600" y="0" height="600"/></clipPath></defs><g transform="matrix(1, 0, 0, 1, 0, -0.000000000000034788)"><g clip-path="url(#fff0c6f280)"><g clip-path="url(#4ca135c6e9)"><g clip-path="url(#f6a1aa4f6b)"><g transform="matrix(1, 0, 0, 1, 446, 445)"><g clip-path="url(#a7c7ca09d4)"><g clip-path="url(#3d660dda9d)"><g clip-path="url(#e8b82c5c6a)"><rect x="-664.4" width="1036.8" fill="#e65700" y="-663.4" height="1036.799999" fill-opacity="1"/></g></g></g></g></g></g><g clip-path="url(#d05840d40f)"><path stroke-linecap="round" transform="matrix(0.684278, -0.506364, 0.506364, 0.684278, 91.028567, 232.709028)" fill="none" stroke-linejoin="miter" d="M 17.073742 53.944528 C 158.915608 -0.658745 300.759105 -0.646929 442.601502 53.983664 " stroke="#e65700" stroke-width="26" stroke-opacity="1" stroke-miterlimit="4"/></g><g clip-path="url(#e626dad26e)"><path stroke-linecap="round" transform="matrix(-0.369081, -0.767086, 0.767086, -0.369081, 173.876038, 599.993658)" fill="none" stroke-linejoin="miter" d="M 18.512132 126.507868 C 157.959136 -24.466186 278.575543 -24.835776 380.365487 125.401086 " stroke="#e65700" stroke-width="26" stroke-opacity="1" stroke-miterlimit="4"/></g><g clip-path="url(#33887118b0)"><path stroke-linecap="round" transform="matrix(0.156686, -0.836714, 0.836714, 0.156686, 243.147909, 547.221909)" fill="none" stroke-linejoin="miter" d="M 14.473642 19.53126 C 8.134041 74.803677 22.224324 74.158559 56.749003 17.595061 " stroke="#e65700" stroke-width="26" stroke-opacity="1" stroke-miterlimit="4"/></g><path stroke-linecap="round" transform="matrix(0.851259, 0.000000000000000681, -0.000000000000000681, 0.851259, 255.264246, 490.483271)" fill="none" stroke-linejoin="miter" d="M 13.001668 13.001345 L 129.10729 13.001345 " stroke="#e65700" stroke-width="26" stroke-opacity="1" stroke-miterlimit="4"/><g clip-path="url(#ae70661fde)"><path stroke-linecap="round" transform="matrix(0.70567, -0.4761, 0.4761, 0.70567, 349.124957, 499.209311)" fill="none" stroke-linejoin="miter" d="M 17.789094 17.733467 C 81.952347 130.316572 110.633049 130.790683 103.829961 19.14943 " stroke="#e65700" stroke-width="26" stroke-opacity="1" stroke-miterlimit="4"/></g><g clip-path="url(#c56b881cf4)"><path stroke-linecap="round" transform="matrix(0.479132, -0.703615, 0.703615, 0.479132, 414.182911, 462.767304)" fill="none" stroke-linejoin="miter" d="M 16.349856 16.098436 C 90.993275 36.913984 165.63947 36.903276 240.280856 16.071479 " stroke="#e65700" stroke-width="26" stroke-opacity="1" stroke-miterlimit="4"/></g><g clip-path="url(#f1801ce724)"><path stroke-linecap="round" transform="matrix(-0.477858, -0.704481, 0.704481, -0.477858, 405.355759, 245.344829)" fill="none" stroke-linejoin="miter" d="M 13.300759 139.420256 C 18.552465 -29.800981 73.29165 -29.139256 177.514516 141.402854 " stroke="#e65700" stroke-width="26" stroke-opacity="1" stroke-miterlimit="4"/></g><g clip-path="url(#cea5b30546)"><path stroke-linecap="round" transform="matrix(-0.269434, -0.807494, 0.807494, -0.269434, 467.531884, 340.763444)" fill="none" stroke-linejoin="miter" d="M 16.959121 94.130846 C -2.735805 -15.426116 51.077949 -14.024189 178.398937 98.326471 " stroke="#e65700" stroke-width="26" stroke-opacity="1" stroke-miterlimit="4"/></g><g clip-path="url(#391861baf6)"><g clip-path="url(#911df3e9b1)"><g clip-path="url(#521f6235f0)"><g transform="matrix(1, 0, 0, 1, 157, 294)"><g clip-path="url(#3b60023c87)"><g clip-path="url(#89a66f15de)"><g clip-path="url(#18f79d2508)"><g clip-path="url(#98de2e817f)"><path fill="#e65700" d="M 8.890625 -3.070312 L 54.753906 5.546875 L 40.210938 82.9375 L -5.648438 74.320312 Z M 8.890625 -3.070312 " fill-opacity="1" fill-rule="nonzero"/></g></g></g></g></g></g></g></g><g clip-path="url(#0f1f3f331b)"><g clip-path="url(#ed70ad9e19)"><g clip-path="url(#86db5d0ab0)"><g transform="matrix(1, 0, 0, 1, 274, 293)"><g clip-path="url(#0645d4496b)"><g clip-path="url(#321edbc950)"><g clip-path="url(#0d3aa909c0)"><g clip-path="url(#a2f4c60719)"><path fill="#e65700" d="M 8.929688 -3.648438 L 54.792969 4.96875 L 40.25 82.359375 L -5.609375 73.742188 Z M 8.929688 -3.648438 " fill-opacity="1" fill-rule="nonzero"/></g></g></g></g></g></g></g></g><path stroke-linecap="round" transform="matrix(-0.851255, 0.00267527, -0.00267527, -0.851255, 287.778914, 422.645042)" fill="none" stroke-linejoin="miter" d="M 16.938035 28.100668 C 52.148979 7.350574 80.932208 6.656345 103.287705 26.022568 " stroke="#e65700" stroke-width="24" stroke-opacity="1" stroke-miterlimit="4"/></g></g></svg>